<svg width="110" height="45" viewBox="0 0 110 45" fill="none" xmlns="http://www.w3.org/2000/svg">
<path d="M85.3404 0C86.6065 0.000810169 87.6338 1.0087 87.643 2.25458V2.25754C87.6432 2.26646 87.6428 2.28819 87.6445 2.32111C87.6479 2.38847 87.6575 2.50399 87.6745 2.66263C87.7088 2.98165 87.7799 3.47291 87.9295 4.09225C88.2289 5.33086 88.8388 7.08095 90.0806 9.01242C92.4556 12.7061 97.2963 17.3004 107.315 20.1493C108.473 19.9558 109.613 20.6586 109.924 21.7992C109.987 22.0337 110.009 22.2699 109.997 22.5C110.009 22.7301 109.987 22.9663 109.924 23.2008C109.626 24.2917 108.571 24.9796 107.466 24.8684C107.287 24.9256 107.098 24.9599 106.902 24.9719C97.1633 27.8285 92.4227 32.345 90.0806 35.9876C88.8388 37.919 88.2289 39.6691 87.9295 40.9077C87.7799 41.5271 87.7088 42.0183 87.6745 42.3374C87.6575 42.496 87.6479 42.6115 87.6445 42.6789C87.6428 42.7118 87.6432 42.7335 87.643 42.7425V42.7454C87.6338 43.9913 86.6065 44.9992 85.3404 45C84.0681 45 83.0351 43.983 83.0348 42.7292H85.0929C83.0348 42.729 83.0333 42.7247 83.0333 42.7247L83.0348 42.7129C83.0348 42.7066 83.0347 42.6988 83.0348 42.6907C83.035 42.6748 83.0357 42.6556 83.0363 42.6331C83.0374 42.5866 83.0385 42.5247 83.0423 42.4512C83.0498 42.3044 83.0653 42.1048 83.0918 41.8584C83.1448 41.365 83.2477 40.6811 83.4473 39.8551C83.8468 38.2024 84.6348 35.9727 86.1879 33.5571C88.0353 30.6838 90.9096 27.6327 95.3414 24.9793H25.3452C24.0726 24.9793 23.0411 23.9626 23.0411 22.7085C23.0411 21.4543 24.0726 20.4376 25.3452 20.4376H96.0569C91.2162 17.69 88.1329 14.468 86.1879 11.4429C84.6348 9.02727 83.8468 6.79764 83.4473 5.14488C83.2477 4.31889 83.1448 3.63503 83.0918 3.14163C83.0653 2.89516 83.0498 2.69563 83.0423 2.54879C83.0385 2.47532 83.0374 2.41338 83.0363 2.36694C83.0357 2.3444 83.035 2.32515 83.0348 2.30928C83.0347 2.30118 83.0348 2.29343 83.0348 2.28711L83.0333 2.27528C83.0333 2.27528 83.0348 2.27103 85.0929 2.27085H83.0348C83.0351 1.01696 84.0681 4.03363e-05 85.3404 0Z" fill="#F04F23"/>
<path d="M14.5927 20.4376C15.8652 20.4376 16.8968 21.4543 16.8968 22.7085C16.8968 23.9626 15.8652 24.9793 14.5927 24.9793H2.30411C1.03158 24.9793 0 23.9626 0 22.7085C0 21.4543 1.03158 20.4376 2.30411 20.4376H14.5927Z" fill="#F04F23"/>
</svg>
