<svg width="320" height="81" viewBox="0 0 320 81" fill="none" xmlns="http://www.w3.org/2000/svg">
<g filter="url(#filter0_d_129_29)">
<mask id="path-1-outside-1_129_29" maskUnits="userSpaceOnUse" x="14.7598" y="11" width="290" height="51" fill="black">
<rect fill="white" x="14.7598" y="11" width="290" height="51"/>
<path d="M35.0798 47.4C30.7064 47.4 27.2664 46.1067 24.7598 43.52C22.2531 40.9333 20.9998 37.2267 20.9998 32.4C20.9998 27.6533 22.2131 23.9733 24.6398 21.36C27.0664 18.72 30.4531 17.4 34.7998 17.4C36.8798 17.4 38.6931 17.5467 40.2398 17.84C40.8798 17.9467 41.3998 18.2667 41.7998 18.8C42.1998 19.3333 42.3998 19.9333 42.3998 20.6V21.88C42.3998 22.44 42.1731 22.88 41.7198 23.2C41.2664 23.52 40.7731 23.6133 40.2398 23.48C38.7198 23.08 37.1731 22.88 35.5998 22.88C33.1998 22.88 31.3198 23.6933 29.9598 25.32C28.6264 26.9467 27.9598 29.3067 27.9598 32.4C27.9598 35.44 28.6798 37.8 30.1198 39.48C31.5598 41.16 33.4798 42 35.8798 42C37.4798 42 39.0398 41.8 40.5598 41.4C41.0931 41.2667 41.5864 41.36 42.0398 41.68C42.5198 42 42.7598 42.44 42.7598 43V44.2C42.7598 44.8667 42.5464 45.4667 42.1198 46C41.7198 46.5333 41.1998 46.8533 40.5598 46.96C38.9864 47.2533 37.1598 47.4 35.0798 47.4ZM55.9885 30.16C54.7885 30.16 53.8819 30.48 53.2685 31.12C52.6552 31.7333 52.2685 32.8 52.1085 34.32C52.1085 34.5333 52.2018 34.64 52.3885 34.64H59.1485C59.3885 34.64 59.5085 34.52 59.5085 34.28C59.4019 31.5333 58.2285 30.16 55.9885 30.16ZM56.9885 47.4C53.3618 47.4 50.5618 46.48 48.5885 44.64C46.6418 42.8 45.6685 40.12 45.6685 36.6C45.6685 33.1067 46.5352 30.44 48.2685 28.6C50.0285 26.7333 52.5618 25.8 55.8685 25.8C62.2152 25.8 65.4419 29.2667 65.5485 36.2C65.5485 36.84 65.2952 37.3867 64.7885 37.84C64.3085 38.2667 63.7485 38.48 63.1085 38.48H52.4285C52.1619 38.48 52.0552 38.6 52.1085 38.84C52.3218 40.3067 52.8818 41.36 53.7885 42C54.7219 42.6133 56.1085 42.92 57.9485 42.92C59.1485 42.92 60.4419 42.7467 61.8285 42.4C62.3885 42.2667 62.8819 42.3733 63.3085 42.72C63.7619 43.0667 63.9885 43.52 63.9885 44.08V44.16C63.9885 44.8267 63.7752 45.44 63.3485 46C62.9485 46.5333 62.4285 46.8533 61.7885 46.96C60.2419 47.2533 58.6419 47.4 56.9885 47.4ZM71.0866 47C70.4733 47 69.94 46.7733 69.4866 46.32C69.06 45.8667 68.8466 45.3333 68.8466 44.72V28.48C68.8466 27.8667 69.06 27.3333 69.4866 26.88C69.94 26.4267 70.4733 26.2 71.0866 26.2H72.7266C73.3666 26.2 73.9 26.4267 74.3266 26.88C74.78 27.3067 75.02 27.84 75.0466 28.48L75.0866 28.8C75.0866 28.8267 75.1 28.84 75.1266 28.84L75.2066 28.76C76.94 26.7867 79.02 25.8 81.4466 25.8C83.8733 25.8 85.62 26.4933 86.6866 27.88C87.7533 29.24 88.2866 31.5733 88.2866 34.88V44.72C88.2866 45.3333 88.06 45.8667 87.6066 46.32C87.18 46.7733 86.66 47 86.0466 47H84.2866C83.6733 47 83.14 46.7733 82.6866 46.32C82.2333 45.8667 82.0066 45.3333 82.0066 44.72V35.08C82.0066 33.48 81.7933 32.3867 81.3666 31.8C80.94 31.1867 80.1666 30.88 79.0466 30.88C78.1133 30.88 77.2466 31.2667 76.4466 32.04C75.6733 32.7867 75.2866 33.6 75.2866 34.48V44.72C75.2866 45.3333 75.06 45.8667 74.6066 46.32C74.18 46.7733 73.66 47 73.0466 47H71.0866ZM101.698 30.6C99.0312 30.6 97.6979 32.6 97.6979 36.6C97.6979 38.6267 98.0579 40.1333 98.7779 41.12C99.4979 42.1067 100.471 42.6 101.698 42.6C102.765 42.6 103.698 42.24 104.498 41.52C105.298 40.8 105.698 39.9867 105.698 39.08V34.12C105.698 33.2133 105.298 32.4 104.498 31.68C103.698 30.96 102.765 30.6 101.698 30.6ZM99.4979 47.4C97.1246 47.4 95.1779 46.4533 93.6579 44.56C92.1379 42.64 91.3779 39.9867 91.3779 36.6C91.3779 33.1333 92.1112 30.4667 93.5779 28.6C95.0446 26.7333 97.0179 25.8 99.4979 25.8C101.685 25.8 103.671 26.6133 105.458 28.24C105.485 28.2667 105.511 28.28 105.538 28.28C105.565 28.28 105.578 28.2667 105.578 28.24V19.28C105.578 18.6667 105.791 18.1333 106.218 17.68C106.671 17.2267 107.205 17 107.818 17H109.778C110.391 17 110.911 17.2267 111.338 17.68C111.791 18.1333 112.018 18.6667 112.018 19.28V44.72C112.018 45.3333 111.791 45.8667 111.338 46.32C110.911 46.7733 110.391 47 109.778 47H108.258C107.618 47 107.071 46.7867 106.618 46.36C106.191 45.9067 105.965 45.36 105.938 44.72V44.4C105.938 44.3733 105.925 44.36 105.898 44.36L105.818 44.44C104.138 46.4133 102.031 47.4 99.4979 47.4ZM122.26 46.68L115.5 28.32C115.286 27.8133 115.34 27.3333 115.66 26.88C115.98 26.4267 116.42 26.2 116.98 26.2H119.5C120.14 26.2 120.726 26.4133 121.26 26.84C121.793 27.24 122.14 27.76 122.3 28.4L125.34 40.84C125.34 40.8667 125.353 40.88 125.38 40.88C125.406 40.88 125.42 40.8667 125.42 40.84L129.06 28.36C129.22 27.72 129.566 27.2 130.1 26.8C130.66 26.4 131.286 26.2 131.98 26.2H134.18C134.713 26.2 135.14 26.4267 135.46 26.88C135.78 27.3333 135.846 27.8133 135.66 28.32L126.22 53.68C125.98 54.32 125.58 54.8267 125.02 55.2C124.46 55.6 123.846 55.8 123.18 55.8H120.98C120.42 55.8 119.993 55.5733 119.7 55.12C119.406 54.6933 119.366 54.2267 119.58 53.72L122.26 47.32C122.286 47.2133 122.3 47.1067 122.3 47C122.3 46.8933 122.286 46.7867 122.26 46.68ZM158.082 35.32C154.722 34.2533 152.296 32.9333 150.802 31.36C149.309 29.76 148.562 27.8133 148.562 25.52C148.562 23.0133 149.429 21.04 151.162 19.6C152.922 18.1333 155.429 17.4 158.682 17.4C161.136 17.4 163.362 17.68 165.362 18.24C166.002 18.4267 166.509 18.8133 166.882 19.4C167.282 19.96 167.482 20.5867 167.482 21.28V22.44C167.482 22.9733 167.256 23.3867 166.802 23.68C166.349 23.9733 165.869 24.0267 165.362 23.84C163.096 23.04 161.002 22.64 159.082 22.64C156.629 22.64 155.402 23.6 155.402 25.52C155.402 27.1467 156.469 28.3067 158.602 29C162.282 30.12 164.829 31.4267 166.242 32.92C167.682 34.4133 168.402 36.3733 168.402 38.8C168.402 44.5333 164.789 47.4 157.562 47.4C155.269 47.4 153.189 47.04 151.322 46.32C150.682 46.08 150.176 45.6667 149.802 45.08C149.456 44.4667 149.282 43.8 149.282 43.08V41.8C149.282 41.32 149.496 40.96 149.922 40.72C150.349 40.4533 150.776 40.4267 151.202 40.64C153.149 41.6 155.136 42.08 157.162 42.08C158.576 42.08 159.642 41.8133 160.362 41.28C161.109 40.72 161.482 39.9333 161.482 38.92C161.482 38.04 161.229 37.32 160.722 36.76C160.216 36.2 159.336 35.72 158.082 35.32ZM181.678 37.48C178.425 37.48 176.798 38.48 176.798 40.48C176.798 41.2 177.011 41.7733 177.438 42.2C177.865 42.6 178.438 42.8 179.158 42.8C180.438 42.8 181.478 42.4 182.278 41.6C183.078 40.7733 183.478 39.68 183.478 38.32V37.84C183.478 37.6 183.358 37.48 183.118 37.48H181.678ZM177.198 47.4C175.358 47.4 173.838 46.8133 172.638 45.64C171.465 44.44 170.878 42.8933 170.878 41C170.878 36.1467 174.478 33.72 181.678 33.72H183.118C183.358 33.72 183.478 33.6133 183.478 33.4V33.2C183.478 32.1867 183.211 31.4533 182.678 31C182.171 30.5467 181.305 30.32 180.078 30.32C178.451 30.32 176.505 30.5733 174.238 31.08C173.678 31.1867 173.171 31.0667 172.718 30.72C172.291 30.3733 172.078 29.92 172.078 29.36V29.28C172.078 28.6133 172.278 28.0133 172.678 27.48C173.105 26.92 173.638 26.5867 174.278 26.48C176.625 26.0267 178.651 25.8 180.358 25.8C183.851 25.8 186.318 26.4267 187.758 27.68C189.225 28.9333 189.958 31.0133 189.958 33.92V44.72C189.958 45.3333 189.731 45.8667 189.278 46.32C188.825 46.7733 188.291 47 187.678 47H186.198C185.558 47 185.011 46.7867 184.558 46.36C184.105 45.9067 183.865 45.36 183.838 44.72V44.28C183.838 44.2533 183.825 44.24 183.798 44.24C183.745 44.24 183.718 44.2533 183.718 44.28C182.038 46.36 179.865 47.4 177.198 47.4ZM200.562 34.12V39.08C200.562 39.96 200.962 40.7733 201.762 41.52C202.589 42.24 203.522 42.6 204.562 42.6C205.789 42.6 206.762 42.1067 207.482 41.12C208.202 40.1067 208.562 38.6 208.562 36.6C208.562 32.6 207.229 30.6 204.562 30.6C203.522 30.6 202.589 30.9733 201.762 31.72C200.962 32.44 200.562 33.24 200.562 34.12ZM196.522 55.8C195.909 55.8 195.375 55.5733 194.922 55.12C194.469 54.6667 194.242 54.1333 194.242 53.52V28.48C194.242 27.8667 194.469 27.3333 194.922 26.88C195.375 26.4267 195.909 26.2 196.522 26.2H198.122C198.762 26.2 199.309 26.4267 199.762 26.88C200.215 27.3067 200.455 27.84 200.482 28.48V28.8C200.482 28.8267 200.495 28.84 200.522 28.84L200.602 28.76C202.309 26.7867 204.362 25.8 206.762 25.8C209.242 25.8 211.215 26.7333 212.682 28.6C214.175 30.4667 214.922 33.1333 214.922 36.6C214.922 39.96 214.149 42.6 212.602 44.52C211.082 46.44 209.135 47.4 206.762 47.4C204.549 47.4 202.575 46.5867 200.842 44.96C200.815 44.9333 200.789 44.92 200.762 44.92C200.735 44.92 200.722 44.9333 200.722 44.96V53.52C200.722 54.1333 200.495 54.6667 200.042 55.12C199.589 55.5733 199.055 55.8 198.442 55.8H196.522ZM224.688 47.4C222.341 47.4 220.634 46.7467 219.568 45.44C218.528 44.1333 218.008 41.8933 218.008 38.72V28.48C218.008 27.8667 218.234 27.3333 218.688 26.88C219.141 26.4267 219.674 26.2 220.288 26.2H222.048C222.661 26.2 223.194 26.4267 223.648 26.88C224.101 27.3333 224.328 27.8667 224.328 28.48V38.28C224.328 39.8267 224.528 40.8933 224.928 41.48C225.354 42.04 226.074 42.32 227.088 42.32C228.021 42.32 228.874 41.9467 229.648 41.2C230.421 40.4267 230.808 39.6 230.808 38.72V28.48C230.808 27.8667 231.034 27.3333 231.488 26.88C231.941 26.4267 232.474 26.2 233.088 26.2H235.008C235.621 26.2 236.154 26.4267 236.608 26.88C237.061 27.3333 237.288 27.8667 237.288 28.48V44.72C237.288 45.3333 237.061 45.8667 236.608 46.32C236.154 46.7733 235.621 47 235.008 47H233.368C232.728 47 232.181 46.7867 231.728 46.36C231.301 45.9067 231.074 45.36 231.048 44.72V44.4C231.048 44.3733 231.034 44.36 231.008 44.36L230.928 44.44C229.194 46.4133 227.114 47.4 224.688 47.4ZM243.063 31.52C242.449 31.52 241.916 31.3067 241.463 30.88C241.009 30.4267 240.783 29.8933 240.783 29.28C240.783 28.6667 241.009 28.1333 241.463 27.68C241.916 27.2267 242.449 27 243.063 27H244.663C244.876 27 244.983 26.88 244.983 26.64V21.68C244.983 21.0667 245.209 20.5333 245.663 20.08C246.116 19.6267 246.649 19.4 247.263 19.4H249.183C249.796 19.4 250.329 19.6267 250.783 20.08C251.236 20.5333 251.463 21.0667 251.463 21.68V26.64C251.463 26.88 251.583 27 251.823 27H255.743C256.356 27 256.876 27.2267 257.303 27.68C257.756 28.1333 257.983 28.6667 257.983 29.28C257.983 29.8933 257.756 30.4267 257.303 30.88C256.876 31.3067 256.356 31.52 255.743 31.52H251.823C251.583 31.52 251.463 31.64 251.463 31.88V38.72C251.463 40.4 251.609 41.4667 251.903 41.92C252.223 42.3733 252.916 42.6 253.983 42.6C254.543 42.6 254.983 42.5733 255.303 42.52C255.889 42.44 256.409 42.5733 256.863 42.92C257.316 43.2667 257.543 43.72 257.543 44.28V44.6C257.543 45.2667 257.329 45.8533 256.903 46.36C256.476 46.8667 255.929 47.16 255.263 47.24C254.436 47.3467 253.476 47.4 252.383 47.4C249.663 47.4 247.743 46.8267 246.623 45.68C245.529 44.5067 244.983 42.4133 244.983 39.4V31.88C244.983 31.64 244.876 31.52 244.663 31.52H243.063ZM264.707 47C264.094 47 263.56 46.7733 263.107 46.32C262.68 45.8667 262.467 45.3333 262.467 44.72V28.48C262.467 27.8667 262.68 27.3333 263.107 26.88C263.56 26.4267 264.094 26.2 264.707 26.2H266.667C267.28 26.2 267.8 26.4267 268.227 26.88C268.68 27.3333 268.907 27.8667 268.907 28.48V30.16C268.907 30.1867 268.92 30.2 268.947 30.2C269 30.2 269.027 30.1867 269.027 30.16C270.68 27.9467 272.987 26.6533 275.947 26.28C276.56 26.2 277.08 26.3867 277.507 26.84C277.96 27.2933 278.187 27.84 278.187 28.48V28.8C278.187 29.4133 277.96 29.9467 277.507 30.4C277.08 30.8533 276.547 31.1067 275.907 31.16C273.747 31.4 272.067 32.1467 270.867 33.4C269.694 34.6267 269.107 36.2267 269.107 38.2V44.72C269.107 45.3333 268.88 45.8667 268.427 46.32C268 46.7733 267.48 47 266.867 47H264.707ZM290.451 37.48C287.198 37.48 285.571 38.48 285.571 40.48C285.571 41.2 285.785 41.7733 286.211 42.2C286.638 42.6 287.211 42.8 287.931 42.8C289.211 42.8 290.251 42.4 291.051 41.6C291.851 40.7733 292.251 39.68 292.251 38.32V37.84C292.251 37.6 292.131 37.48 291.891 37.48H290.451ZM285.971 47.4C284.131 47.4 282.611 46.8133 281.411 45.64C280.238 44.44 279.651 42.8933 279.651 41C279.651 36.1467 283.251 33.72 290.451 33.72H291.891C292.131 33.72 292.251 33.6133 292.251 33.4V33.2C292.251 32.1867 291.985 31.4533 291.451 31C290.945 30.5467 290.078 30.32 288.851 30.32C287.225 30.32 285.278 30.5733 283.011 31.08C282.451 31.1867 281.945 31.0667 281.491 30.72C281.065 30.3733 280.851 29.92 280.851 29.36V29.28C280.851 28.6133 281.051 28.0133 281.451 27.48C281.878 26.92 282.411 26.5867 283.051 26.48C285.398 26.0267 287.425 25.8 289.131 25.8C292.625 25.8 295.091 26.4267 296.531 27.68C297.998 28.9333 298.731 31.0133 298.731 33.92V44.72C298.731 45.3333 298.505 45.8667 298.051 46.32C297.598 46.7733 297.065 47 296.451 47H294.971C294.331 47 293.785 46.7867 293.331 46.36C292.878 45.9067 292.638 45.36 292.611 44.72V44.28C292.611 44.2533 292.598 44.24 292.571 44.24C292.518 44.24 292.491 44.2533 292.491 44.28C290.811 46.36 288.638 47.4 285.971 47.4Z"/>
</mask>
<path d="M35.0798 47.4C30.7064 47.4 27.2664 46.1067 24.7598 43.52C22.2531 40.9333 20.9998 37.2267 20.9998 32.4C20.9998 27.6533 22.2131 23.9733 24.6398 21.36C27.0664 18.72 30.4531 17.4 34.7998 17.4C36.8798 17.4 38.6931 17.5467 40.2398 17.84C40.8798 17.9467 41.3998 18.2667 41.7998 18.8C42.1998 19.3333 42.3998 19.9333 42.3998 20.6V21.88C42.3998 22.44 42.1731 22.88 41.7198 23.2C41.2664 23.52 40.7731 23.6133 40.2398 23.48C38.7198 23.08 37.1731 22.88 35.5998 22.88C33.1998 22.88 31.3198 23.6933 29.9598 25.32C28.6264 26.9467 27.9598 29.3067 27.9598 32.4C27.9598 35.44 28.6798 37.8 30.1198 39.48C31.5598 41.16 33.4798 42 35.8798 42C37.4798 42 39.0398 41.8 40.5598 41.4C41.0931 41.2667 41.5864 41.36 42.0398 41.68C42.5198 42 42.7598 42.44 42.7598 43V44.2C42.7598 44.8667 42.5464 45.4667 42.1198 46C41.7198 46.5333 41.1998 46.8533 40.5598 46.96C38.9864 47.2533 37.1598 47.4 35.0798 47.4ZM55.9885 30.16C54.7885 30.16 53.8819 30.48 53.2685 31.12C52.6552 31.7333 52.2685 32.8 52.1085 34.32C52.1085 34.5333 52.2018 34.64 52.3885 34.64H59.1485C59.3885 34.64 59.5085 34.52 59.5085 34.28C59.4019 31.5333 58.2285 30.16 55.9885 30.16ZM56.9885 47.4C53.3618 47.4 50.5618 46.48 48.5885 44.64C46.6418 42.8 45.6685 40.12 45.6685 36.6C45.6685 33.1067 46.5352 30.44 48.2685 28.6C50.0285 26.7333 52.5618 25.8 55.8685 25.8C62.2152 25.8 65.4419 29.2667 65.5485 36.2C65.5485 36.84 65.2952 37.3867 64.7885 37.84C64.3085 38.2667 63.7485 38.48 63.1085 38.48H52.4285C52.1619 38.48 52.0552 38.6 52.1085 38.84C52.3218 40.3067 52.8818 41.36 53.7885 42C54.7219 42.6133 56.1085 42.92 57.9485 42.92C59.1485 42.92 60.4419 42.7467 61.8285 42.4C62.3885 42.2667 62.8819 42.3733 63.3085 42.72C63.7619 43.0667 63.9885 43.52 63.9885 44.08V44.16C63.9885 44.8267 63.7752 45.44 63.3485 46C62.9485 46.5333 62.4285 46.8533 61.7885 46.96C60.2419 47.2533 58.6419 47.4 56.9885 47.4ZM71.0866 47C70.4733 47 69.94 46.7733 69.4866 46.32C69.06 45.8667 68.8466 45.3333 68.8466 44.72V28.48C68.8466 27.8667 69.06 27.3333 69.4866 26.88C69.94 26.4267 70.4733 26.2 71.0866 26.2H72.7266C73.3666 26.2 73.9 26.4267 74.3266 26.88C74.78 27.3067 75.02 27.84 75.0466 28.48L75.0866 28.8C75.0866 28.8267 75.1 28.84 75.1266 28.84L75.2066 28.76C76.94 26.7867 79.02 25.8 81.4466 25.8C83.8733 25.8 85.62 26.4933 86.6866 27.88C87.7533 29.24 88.2866 31.5733 88.2866 34.88V44.72C88.2866 45.3333 88.06 45.8667 87.6066 46.32C87.18 46.7733 86.66 47 86.0466 47H84.2866C83.6733 47 83.14 46.7733 82.6866 46.32C82.2333 45.8667 82.0066 45.3333 82.0066 44.72V35.08C82.0066 33.48 81.7933 32.3867 81.3666 31.8C80.94 31.1867 80.1666 30.88 79.0466 30.88C78.1133 30.88 77.2466 31.2667 76.4466 32.04C75.6733 32.7867 75.2866 33.6 75.2866 34.48V44.72C75.2866 45.3333 75.06 45.8667 74.6066 46.32C74.18 46.7733 73.66 47 73.0466 47H71.0866ZM101.698 30.6C99.0312 30.6 97.6979 32.6 97.6979 36.6C97.6979 38.6267 98.0579 40.1333 98.7779 41.12C99.4979 42.1067 100.471 42.6 101.698 42.6C102.765 42.6 103.698 42.24 104.498 41.52C105.298 40.8 105.698 39.9867 105.698 39.08V34.12C105.698 33.2133 105.298 32.4 104.498 31.68C103.698 30.96 102.765 30.6 101.698 30.6ZM99.4979 47.4C97.1246 47.4 95.1779 46.4533 93.6579 44.56C92.1379 42.64 91.3779 39.9867 91.3779 36.6C91.3779 33.1333 92.1112 30.4667 93.5779 28.6C95.0446 26.7333 97.0179 25.8 99.4979 25.8C101.685 25.8 103.671 26.6133 105.458 28.24C105.485 28.2667 105.511 28.28 105.538 28.28C105.565 28.28 105.578 28.2667 105.578 28.24V19.28C105.578 18.6667 105.791 18.1333 106.218 17.68C106.671 17.2267 107.205 17 107.818 17H109.778C110.391 17 110.911 17.2267 111.338 17.68C111.791 18.1333 112.018 18.6667 112.018 19.28V44.72C112.018 45.3333 111.791 45.8667 111.338 46.32C110.911 46.7733 110.391 47 109.778 47H108.258C107.618 47 107.071 46.7867 106.618 46.36C106.191 45.9067 105.965 45.36 105.938 44.72V44.4C105.938 44.3733 105.925 44.36 105.898 44.36L105.818 44.44C104.138 46.4133 102.031 47.4 99.4979 47.4ZM122.26 46.68L115.5 28.32C115.286 27.8133 115.34 27.3333 115.66 26.88C115.98 26.4267 116.42 26.2 116.98 26.2H119.5C120.14 26.2 120.726 26.4133 121.26 26.84C121.793 27.24 122.14 27.76 122.3 28.4L125.34 40.84C125.34 40.8667 125.353 40.88 125.38 40.88C125.406 40.88 125.42 40.8667 125.42 40.84L129.06 28.36C129.22 27.72 129.566 27.2 130.1 26.8C130.66 26.4 131.286 26.2 131.98 26.2H134.18C134.713 26.2 135.14 26.4267 135.46 26.88C135.78 27.3333 135.846 27.8133 135.66 28.32L126.22 53.68C125.98 54.32 125.58 54.8267 125.02 55.2C124.46 55.6 123.846 55.8 123.18 55.8H120.98C120.42 55.8 119.993 55.5733 119.7 55.12C119.406 54.6933 119.366 54.2267 119.58 53.72L122.26 47.32C122.286 47.2133 122.3 47.1067 122.3 47C122.3 46.8933 122.286 46.7867 122.26 46.68ZM158.082 35.32C154.722 34.2533 152.296 32.9333 150.802 31.36C149.309 29.76 148.562 27.8133 148.562 25.52C148.562 23.0133 149.429 21.04 151.162 19.6C152.922 18.1333 155.429 17.4 158.682 17.4C161.136 17.4 163.362 17.68 165.362 18.24C166.002 18.4267 166.509 18.8133 166.882 19.4C167.282 19.96 167.482 20.5867 167.482 21.28V22.44C167.482 22.9733 167.256 23.3867 166.802 23.68C166.349 23.9733 165.869 24.0267 165.362 23.84C163.096 23.04 161.002 22.64 159.082 22.64C156.629 22.64 155.402 23.6 155.402 25.52C155.402 27.1467 156.469 28.3067 158.602 29C162.282 30.12 164.829 31.4267 166.242 32.92C167.682 34.4133 168.402 36.3733 168.402 38.8C168.402 44.5333 164.789 47.4 157.562 47.4C155.269 47.4 153.189 47.04 151.322 46.32C150.682 46.08 150.176 45.6667 149.802 45.08C149.456 44.4667 149.282 43.8 149.282 43.08V41.8C149.282 41.32 149.496 40.96 149.922 40.72C150.349 40.4533 150.776 40.4267 151.202 40.64C153.149 41.6 155.136 42.08 157.162 42.08C158.576 42.08 159.642 41.8133 160.362 41.28C161.109 40.72 161.482 39.9333 161.482 38.92C161.482 38.04 161.229 37.32 160.722 36.76C160.216 36.2 159.336 35.72 158.082 35.32ZM181.678 37.48C178.425 37.48 176.798 38.48 176.798 40.48C176.798 41.2 177.011 41.7733 177.438 42.2C177.865 42.6 178.438 42.8 179.158 42.8C180.438 42.8 181.478 42.4 182.278 41.6C183.078 40.7733 183.478 39.68 183.478 38.32V37.84C183.478 37.6 183.358 37.48 183.118 37.48H181.678ZM177.198 47.4C175.358 47.4 173.838 46.8133 172.638 45.64C171.465 44.44 170.878 42.8933 170.878 41C170.878 36.1467 174.478 33.72 181.678 33.72H183.118C183.358 33.72 183.478 33.6133 183.478 33.4V33.2C183.478 32.1867 183.211 31.4533 182.678 31C182.171 30.5467 181.305 30.32 180.078 30.32C178.451 30.32 176.505 30.5733 174.238 31.08C173.678 31.1867 173.171 31.0667 172.718 30.72C172.291 30.3733 172.078 29.92 172.078 29.36V29.28C172.078 28.6133 172.278 28.0133 172.678 27.48C173.105 26.92 173.638 26.5867 174.278 26.48C176.625 26.0267 178.651 25.8 180.358 25.8C183.851 25.8 186.318 26.4267 187.758 27.68C189.225 28.9333 189.958 31.0133 189.958 33.92V44.72C189.958 45.3333 189.731 45.8667 189.278 46.32C188.825 46.7733 188.291 47 187.678 47H186.198C185.558 47 185.011 46.7867 184.558 46.36C184.105 45.9067 183.865 45.36 183.838 44.72V44.28C183.838 44.2533 183.825 44.24 183.798 44.24C183.745 44.24 183.718 44.2533 183.718 44.28C182.038 46.36 179.865 47.4 177.198 47.4ZM200.562 34.12V39.08C200.562 39.96 200.962 40.7733 201.762 41.52C202.589 42.24 203.522 42.6 204.562 42.6C205.789 42.6 206.762 42.1067 207.482 41.12C208.202 40.1067 208.562 38.6 208.562 36.6C208.562 32.6 207.229 30.6 204.562 30.6C203.522 30.6 202.589 30.9733 201.762 31.72C200.962 32.44 200.562 33.24 200.562 34.12ZM196.522 55.8C195.909 55.8 195.375 55.5733 194.922 55.12C194.469 54.6667 194.242 54.1333 194.242 53.52V28.48C194.242 27.8667 194.469 27.3333 194.922 26.88C195.375 26.4267 195.909 26.2 196.522 26.2H198.122C198.762 26.2 199.309 26.4267 199.762 26.88C200.215 27.3067 200.455 27.84 200.482 28.48V28.8C200.482 28.8267 200.495 28.84 200.522 28.84L200.602 28.76C202.309 26.7867 204.362 25.8 206.762 25.8C209.242 25.8 211.215 26.7333 212.682 28.6C214.175 30.4667 214.922 33.1333 214.922 36.6C214.922 39.96 214.149 42.6 212.602 44.52C211.082 46.44 209.135 47.4 206.762 47.4C204.549 47.4 202.575 46.5867 200.842 44.96C200.815 44.9333 200.789 44.92 200.762 44.92C200.735 44.92 200.722 44.9333 200.722 44.96V53.52C200.722 54.1333 200.495 54.6667 200.042 55.12C199.589 55.5733 199.055 55.8 198.442 55.8H196.522ZM224.688 47.4C222.341 47.4 220.634 46.7467 219.568 45.44C218.528 44.1333 218.008 41.8933 218.008 38.72V28.48C218.008 27.8667 218.234 27.3333 218.688 26.88C219.141 26.4267 219.674 26.2 220.288 26.2H222.048C222.661 26.2 223.194 26.4267 223.648 26.88C224.101 27.3333 224.328 27.8667 224.328 28.48V38.28C224.328 39.8267 224.528 40.8933 224.928 41.48C225.354 42.04 226.074 42.32 227.088 42.32C228.021 42.32 228.874 41.9467 229.648 41.2C230.421 40.4267 230.808 39.6 230.808 38.72V28.48C230.808 27.8667 231.034 27.3333 231.488 26.88C231.941 26.4267 232.474 26.2 233.088 26.2H235.008C235.621 26.2 236.154 26.4267 236.608 26.88C237.061 27.3333 237.288 27.8667 237.288 28.48V44.72C237.288 45.3333 237.061 45.8667 236.608 46.32C236.154 46.7733 235.621 47 235.008 47H233.368C232.728 47 232.181 46.7867 231.728 46.36C231.301 45.9067 231.074 45.36 231.048 44.72V44.4C231.048 44.3733 231.034 44.36 231.008 44.36L230.928 44.44C229.194 46.4133 227.114 47.4 224.688 47.4ZM243.063 31.52C242.449 31.52 241.916 31.3067 241.463 30.88C241.009 30.4267 240.783 29.8933 240.783 29.28C240.783 28.6667 241.009 28.1333 241.463 27.68C241.916 27.2267 242.449 27 243.063 27H244.663C244.876 27 244.983 26.88 244.983 26.64V21.68C244.983 21.0667 245.209 20.5333 245.663 20.08C246.116 19.6267 246.649 19.4 247.263 19.4H249.183C249.796 19.4 250.329 19.6267 250.783 20.08C251.236 20.5333 251.463 21.0667 251.463 21.68V26.64C251.463 26.88 251.583 27 251.823 27H255.743C256.356 27 256.876 27.2267 257.303 27.68C257.756 28.1333 257.983 28.6667 257.983 29.28C257.983 29.8933 257.756 30.4267 257.303 30.88C256.876 31.3067 256.356 31.52 255.743 31.52H251.823C251.583 31.52 251.463 31.64 251.463 31.88V38.72C251.463 40.4 251.609 41.4667 251.903 41.92C252.223 42.3733 252.916 42.6 253.983 42.6C254.543 42.6 254.983 42.5733 255.303 42.52C255.889 42.44 256.409 42.5733 256.863 42.92C257.316 43.2667 257.543 43.72 257.543 44.28V44.6C257.543 45.2667 257.329 45.8533 256.903 46.36C256.476 46.8667 255.929 47.16 255.263 47.24C254.436 47.3467 253.476 47.4 252.383 47.4C249.663 47.4 247.743 46.8267 246.623 45.68C245.529 44.5067 244.983 42.4133 244.983 39.4V31.88C244.983 31.64 244.876 31.52 244.663 31.52H243.063ZM264.707 47C264.094 47 263.56 46.7733 263.107 46.32C262.68 45.8667 262.467 45.3333 262.467 44.72V28.48C262.467 27.8667 262.68 27.3333 263.107 26.88C263.56 26.4267 264.094 26.2 264.707 26.2H266.667C267.28 26.2 267.8 26.4267 268.227 26.88C268.68 27.3333 268.907 27.8667 268.907 28.48V30.16C268.907 30.1867 268.92 30.2 268.947 30.2C269 30.2 269.027 30.1867 269.027 30.16C270.68 27.9467 272.987 26.6533 275.947 26.28C276.56 26.2 277.08 26.3867 277.507 26.84C277.96 27.2933 278.187 27.84 278.187 28.48V28.8C278.187 29.4133 277.96 29.9467 277.507 30.4C277.08 30.8533 276.547 31.1067 275.907 31.16C273.747 31.4 272.067 32.1467 270.867 33.4C269.694 34.6267 269.107 36.2267 269.107 38.2V44.72C269.107 45.3333 268.88 45.8667 268.427 46.32C268 46.7733 267.48 47 266.867 47H264.707ZM290.451 37.48C287.198 37.48 285.571 38.48 285.571 40.48C285.571 41.2 285.785 41.7733 286.211 42.2C286.638 42.6 287.211 42.8 287.931 42.8C289.211 42.8 290.251 42.4 291.051 41.6C291.851 40.7733 292.251 39.68 292.251 38.32V37.84C292.251 37.6 292.131 37.48 291.891 37.48H290.451ZM285.971 47.4C284.131 47.4 282.611 46.8133 281.411 45.64C280.238 44.44 279.651 42.8933 279.651 41C279.651 36.1467 283.251 33.72 290.451 33.72H291.891C292.131 33.72 292.251 33.6133 292.251 33.4V33.2C292.251 32.1867 291.985 31.4533 291.451 31C290.945 30.5467 290.078 30.32 288.851 30.32C287.225 30.32 285.278 30.5733 283.011 31.08C282.451 31.1867 281.945 31.0667 281.491 30.72C281.065 30.3733 280.851 29.92 280.851 29.36V29.28C280.851 28.6133 281.051 28.0133 281.451 27.48C281.878 26.92 282.411 26.5867 283.051 26.48C285.398 26.0267 287.425 25.8 289.131 25.8C292.625 25.8 295.091 26.4267 296.531 27.68C297.998 28.9333 298.731 31.0133 298.731 33.92V44.72C298.731 45.3333 298.505 45.8667 298.051 46.32C297.598 46.7733 297.065 47 296.451 47H294.971C294.331 47 293.785 46.7867 293.331 46.36C292.878 45.9067 292.638 45.36 292.611 44.72V44.28C292.611 44.2533 292.598 44.24 292.571 44.24C292.518 44.24 292.491 44.2533 292.491 44.28C290.811 46.36 288.638 47.4 285.971 47.4Z" fill="url(#paint0_linear_129_29)"/>
<path d="M24.7598 43.52L20.451 47.6955L20.451 47.6955L24.7598 43.52ZM24.6398 21.36L29.0365 25.4427L29.0469 25.4316L29.0571 25.4204L24.6398 21.36ZM40.2398 17.84L39.1218 23.7349L39.1874 23.7474L39.2534 23.7584L40.2398 17.84ZM41.7998 18.8L36.9998 22.4L36.9998 22.4L41.7998 18.8ZM40.2398 23.48L38.7128 29.2824L38.7486 29.2919L38.7846 29.3009L40.2398 23.48ZM29.9598 25.32L25.3566 21.4715L25.3379 21.4939L25.3194 21.5164L29.9598 25.32ZM30.1198 39.48L25.5642 43.3847L25.5642 43.3847L30.1198 39.48ZM40.5598 41.4L39.1045 35.5791L39.0686 35.5881L39.0328 35.5976L40.5598 41.4ZM42.0398 41.68L38.5797 46.5818L38.645 46.6279L38.7116 46.6723L42.0398 41.68ZM42.1198 46L37.4346 42.2518L37.376 42.325L37.3198 42.4L42.1198 46ZM40.5598 46.96L39.5734 41.0416L39.5166 41.0511L39.4601 41.0616L40.5598 46.96ZM35.0798 47.4V41.4C31.9577 41.4 30.2096 40.522 29.0685 39.3445L24.7598 43.52L20.451 47.6955C24.3233 51.6913 29.4551 53.4 35.0798 53.4V47.4ZM24.7598 43.52L29.0685 39.3445C27.9738 38.2149 26.9998 36.2119 26.9998 32.4H20.9998H14.9998C14.9998 38.2414 16.5324 43.6518 20.451 47.6955L24.7598 43.52ZM20.9998 32.4H26.9998C26.9998 28.6554 27.9429 26.6205 29.0365 25.4427L24.6398 21.36L20.243 17.2773C16.4833 21.3262 14.9998 26.6513 14.9998 32.4H20.9998ZM24.6398 21.36L29.0571 25.4204C30.1107 24.2742 31.7468 23.4 34.7998 23.4V17.4V11.4C29.1594 11.4 24.0221 13.1658 20.2224 17.2996L24.6398 21.36ZM34.7998 17.4V23.4C36.6164 23.4 38.0392 23.5296 39.1218 23.7349L40.2398 17.84L41.3578 11.9451C39.347 11.5637 37.1431 11.4 34.7998 11.4V17.4ZM40.2398 17.84L39.2534 23.7584C38.857 23.6923 38.4062 23.5414 37.9652 23.2699C37.5268 23.0002 37.2102 22.6806 36.9998 22.4L41.7998 18.8L46.5998 15.2C45.3022 13.47 43.4341 12.2896 41.2262 11.9216L40.2398 17.84ZM41.7998 18.8L36.9998 22.4C36.8339 22.1788 36.6724 21.8916 36.5577 21.5474C36.4429 21.2031 36.3998 20.8765 36.3998 20.6H42.3998H48.3998C48.3998 18.6351 47.7787 16.7719 46.5998 15.2L41.7998 18.8ZM42.3998 20.6H36.3998V21.88H42.3998H48.3998V20.6H42.3998ZM42.3998 21.88H36.3998C36.3998 21.3309 36.5169 20.618 36.8959 19.8823C37.276 19.1445 37.7943 18.6267 38.2597 18.2982L41.7198 23.2L45.1799 28.1018C47.2433 26.6452 48.3998 24.3681 48.3998 21.88H42.3998ZM41.7198 23.2L38.2597 18.2982C38.6601 18.0155 39.2123 17.7436 39.8944 17.6146C40.5781 17.4852 41.201 17.5357 41.695 17.6591L40.2398 23.48L38.7846 29.3009C41.0302 29.8623 43.3153 29.418 45.1799 28.1018L41.7198 23.2ZM40.2398 23.48L41.7667 17.6776C39.7478 17.1463 37.6879 16.88 35.5998 16.88V22.88V28.88C36.6583 28.88 37.6917 29.0137 38.7128 29.2824L40.2398 23.48ZM35.5998 22.88V16.88C31.6857 16.88 28.0153 18.2915 25.3566 21.4715L29.9598 25.32L34.5629 29.1685C34.664 29.0476 34.7223 29.0183 34.7721 28.9968C34.8422 28.9664 35.0803 28.88 35.5998 28.88V22.88ZM29.9598 25.32L25.3194 21.5164C22.7758 24.6197 21.9598 28.552 21.9598 32.4H27.9598H33.9598C33.9598 30.0614 34.4771 29.2737 34.6001 29.1236L29.9598 25.32ZM27.9598 32.4H21.9598C21.9598 36.3371 22.8946 40.2702 25.5642 43.3847L30.1198 39.48L34.6753 35.5753C34.4649 35.3298 33.9598 34.5429 33.9598 32.4H27.9598ZM30.1198 39.48L25.5642 43.3847C28.249 46.5169 31.896 48 35.8798 48V42V36C35.0635 36 34.8706 35.8031 34.6753 35.5753L30.1198 39.48ZM35.8798 42V48C37.9858 48 40.0594 47.736 42.0867 47.2024L40.5598 41.4L39.0328 35.5976C38.0201 35.864 36.9737 36 35.8798 36V42ZM40.5598 41.4L42.015 47.2209C41.521 47.3443 40.8981 47.3948 40.2144 47.2654C39.5323 47.1364 38.9801 46.8645 38.5797 46.5818L42.0398 41.68L45.4999 36.7782C43.6353 35.462 41.3502 35.0177 39.1045 35.5791L40.5598 41.4ZM42.0398 41.68L38.7116 46.6723C38.2659 46.3752 37.7235 45.8769 37.3124 45.1231C36.8974 44.3622 36.7598 43.604 36.7598 43H42.7598H48.7598C48.7598 40.3623 47.4567 38.0802 45.368 36.6877L42.0398 41.68ZM42.7598 43H36.7598V44.2H42.7598H48.7598V43H42.7598ZM42.7598 44.2H36.7598C36.7598 43.8809 36.8131 43.5151 36.9465 43.1399C37.0792 42.7665 37.2611 42.4687 37.4346 42.2518L42.1198 46L46.805 49.7482C48.0601 48.1792 48.7598 46.2649 48.7598 44.2H42.7598ZM42.1198 46L37.3198 42.4C37.5302 42.1194 37.8468 41.7998 38.2852 41.5301C38.7262 41.2586 39.177 41.1077 39.5734 41.0416L40.5598 46.96L41.5462 52.8784C43.7541 52.5104 45.6222 51.33 46.9198 49.6L42.1198 46ZM40.5598 46.96L39.4601 41.0616C38.3383 41.2708 36.8939 41.4 35.0798 41.4V47.4V53.4C37.4256 53.4 39.6346 53.2359 41.6595 52.8584L40.5598 46.96ZM53.2685 31.12L57.5112 35.3626L57.5563 35.3175L57.6004 35.2714L53.2685 31.12ZM52.1085 34.32L46.1415 33.6919L46.1085 34.0051V34.32H52.1085ZM59.5085 34.28H65.5085V34.1635L65.504 34.0472L59.5085 34.28ZM48.5885 44.64L44.467 49.0004L44.4818 49.0144L44.4967 49.0283L48.5885 44.64ZM48.2685 28.6L43.903 24.4839L43.9012 24.4858L48.2685 28.6ZM65.5485 36.2H71.5485V36.1538L71.5478 36.1077L65.5485 36.2ZM64.7885 37.84L68.7747 42.3245L68.782 42.318L68.7893 42.3114L64.7885 37.84ZM52.1085 38.84L58.046 37.9764L58.014 37.7559L57.9656 37.5384L52.1085 38.84ZM53.7885 42L50.3284 46.9018L50.41 46.9594L50.4935 47.0142L53.7885 42ZM61.8285 42.4L60.4388 36.5632L60.406 36.571L60.3733 36.5791L61.8285 42.4ZM63.3085 42.72L59.525 47.3767L59.5936 47.4324L59.6638 47.4861L63.3085 42.72ZM63.3485 46L58.5759 42.3637L58.5622 42.3818L58.5485 42.4L63.3485 46ZM61.7885 46.96L60.8021 41.0416L60.7362 41.0526L60.6705 41.0651L61.7885 46.96ZM55.9885 30.16V24.16C53.7514 24.16 51.0378 24.776 48.9366 26.9686L53.2685 31.12L57.6004 35.2714C57.2035 35.6856 56.7611 35.9324 56.4054 36.0579C56.0807 36.1726 55.9069 36.16 55.9885 36.16V30.16ZM53.2685 31.12L49.0259 26.8774C46.9376 28.9656 46.3471 31.7385 46.1415 33.6919L52.1085 34.32L58.0755 34.9481C58.121 34.5165 58.1777 34.3742 58.1593 34.4248C58.1416 34.4738 57.9863 34.8875 57.5112 35.3626L53.2685 31.12ZM52.1085 34.32H46.1085C46.1085 35.1694 46.277 36.927 47.6631 38.511C49.183 40.2481 51.1466 40.64 52.3885 40.64V34.64V28.64C53.4438 28.64 55.2673 28.9785 56.694 30.609C57.9867 32.0864 58.1085 33.684 58.1085 34.32H52.1085ZM52.3885 34.64V40.64H59.1485V34.64V28.64H52.3885V34.64ZM59.1485 34.64V40.64C60.1934 40.64 62.0791 40.3747 63.6612 38.7926C65.2432 37.2106 65.5085 35.3249 65.5085 34.28H59.5085H53.5085C53.5085 33.4751 53.7138 31.7694 55.1759 30.3074C56.6379 28.8453 58.3436 28.64 59.1485 28.64V34.64ZM59.5085 34.28L65.504 34.0472C65.4243 31.9946 64.9266 29.4184 63.1103 27.2926C61.1165 24.9589 58.4055 24.16 55.9885 24.16V30.16V36.16C55.9435 36.16 55.6508 36.1536 55.2289 35.9838C54.7755 35.8014 54.3336 35.4934 53.9867 35.0874C53.3438 34.3349 53.4861 33.8187 53.513 34.5128L59.5085 34.28ZM56.9885 47.4V41.4C54.3478 41.4 53.2064 40.7423 52.6803 40.2517L48.5885 44.64L44.4967 49.0283C47.9173 52.2177 52.3759 53.4 56.9885 53.4V47.4ZM48.5885 44.64L52.71 40.2796C52.3069 39.8986 51.6685 39.013 51.6685 36.6H45.6685H39.6685C39.6685 41.227 40.9768 45.7014 44.467 49.0004L48.5885 44.64ZM45.6685 36.6H51.6685C51.6685 34.0457 52.2959 33.075 52.6359 32.7142L48.2685 28.6L43.9012 24.4858C40.7744 27.805 39.6685 32.1677 39.6685 36.6H45.6685ZM48.2685 28.6L52.6341 32.7161C52.9558 32.3748 53.7106 31.8 55.8685 31.8V25.8V19.8C51.4131 19.8 47.1012 21.0919 43.903 24.4839L48.2685 28.6ZM55.8685 25.8V31.8C57.9669 31.8 58.5264 32.3481 58.6566 32.4879C58.8759 32.7236 59.5083 33.6332 59.5492 36.2923L65.5485 36.2L71.5478 36.1077C71.482 31.8335 70.4478 27.5431 67.4405 24.3121C64.3439 20.9853 60.1168 19.8 55.8685 19.8V25.8ZM65.5485 36.2H59.5485C59.5485 35.704 59.6524 35.1332 59.9147 34.5672C60.1728 34.0101 60.5105 33.6166 60.7877 33.3686L64.7885 37.84L68.7893 42.3114C70.4786 40.8 71.5485 38.6636 71.5485 36.2H65.5485ZM64.7885 37.84L60.8023 33.3555C61.0667 33.1205 61.4255 32.8834 61.8725 32.7131C62.3199 32.5426 62.7486 32.48 63.1085 32.48V38.48V44.48C65.2236 44.48 67.2006 43.7237 68.7747 42.3245L64.7885 37.84ZM63.1085 38.48V32.48H52.4285V38.48V44.48H63.1085V38.48ZM52.4285 38.48V32.48C51.6738 32.48 49.4219 32.6063 47.6641 34.5838C45.7604 36.7254 46.0365 39.1747 46.2514 40.1416L52.1085 38.84L57.9656 37.5384C58.1272 38.2653 58.4299 40.5346 56.633 42.5562C54.9818 44.4137 52.9165 44.48 52.4285 44.48V38.48ZM52.1085 38.84L46.171 39.7036C46.5385 42.2303 47.6702 45.0254 50.3284 46.9018L53.7885 42L57.2486 37.0982C57.6193 37.3599 57.8592 37.6743 57.9863 37.9134C58.098 38.1235 58.0765 38.1859 58.046 37.9764L52.1085 38.84ZM53.7885 42L50.4935 47.0142C52.8525 48.5644 55.6213 48.92 57.9485 48.92V42.92V36.92C57.3437 36.92 56.9886 36.8679 56.8241 36.8316C56.658 36.7948 56.8001 36.7995 57.0836 36.9858L53.7885 42ZM57.9485 42.92V48.92C59.7219 48.92 61.5088 48.6646 63.2837 48.2209L61.8285 42.4L60.3733 36.5791C59.3749 36.8287 58.5752 36.92 57.9485 36.92V42.92ZM61.8285 42.4L63.2182 48.2368C62.7484 48.3487 62.0963 48.4057 61.3505 48.2445C60.5951 48.0812 59.977 47.744 59.525 47.3767L63.3085 42.72L67.0921 38.0633C65.1404 36.4776 62.7133 36.0216 60.4388 36.5632L61.8285 42.4ZM63.3085 42.72L59.6638 47.4861C59.2576 47.1755 58.7955 46.6904 58.452 46.0033C58.1066 45.3125 57.9885 44.6324 57.9885 44.08H63.9885H69.9885C69.9885 41.6097 68.8578 39.4103 66.9532 37.9539L63.3085 42.72ZM63.9885 44.08H57.9885V44.16H63.9885H69.9885V44.08H63.9885ZM63.9885 44.16H57.9885C57.9885 43.8404 58.0419 43.4929 58.1615 43.1489C58.2799 42.8084 58.4373 42.5457 58.5759 42.3637L63.3485 46L68.1211 49.6363C69.2963 48.0939 69.9885 46.2171 69.9885 44.16H63.9885ZM63.3485 46L58.5485 42.4C58.7589 42.1194 59.0756 41.7998 59.5139 41.53C59.955 41.2586 60.4058 41.1077 60.8021 41.0416L61.7885 46.96L62.7749 52.8784C64.9828 52.5104 66.851 51.33 68.1485 49.6L63.3485 46ZM61.7885 46.96L60.6705 41.0651C59.5104 41.2851 58.2855 41.4 56.9885 41.4V47.4V53.4C58.9982 53.4 60.9733 53.2216 62.9065 52.8549L61.7885 46.96ZM69.4866 46.32L65.1174 50.4322L65.1797 50.4984L65.244 50.5626L69.4866 46.32ZM69.4866 26.88L65.244 22.6374L65.1797 22.7016L65.1174 22.7678L69.4866 26.88ZM74.3266 26.88L69.9574 30.9922L70.0821 31.1246L70.2145 31.2492L74.3266 26.88ZM75.0466 28.48L69.0518 28.7298L69.0622 28.9778L69.093 29.2242L75.0466 28.48ZM75.0866 28.8H81.0866V28.4265L81.0403 28.0558L75.0866 28.8ZM75.1266 28.84V34.84H77.6119L79.3693 33.0826L75.1266 28.84ZM75.2066 28.76L79.4493 33.0026L79.5865 32.8654L79.7145 32.7196L75.2066 28.76ZM86.6866 27.88L81.9309 31.5383L81.9481 31.5606L81.9655 31.5828L86.6866 27.88ZM87.6066 46.32L83.364 42.0774L83.2997 42.1416L83.2374 42.2078L87.6066 46.32ZM82.6866 46.32L86.9293 42.0774L86.9293 42.0774L82.6866 46.32ZM81.3666 31.8L76.4412 35.2264L76.4772 35.2781L76.5142 35.329L81.3666 31.8ZM76.4466 32.04L80.6142 36.3564L80.6168 36.3539L76.4466 32.04ZM74.6066 46.32L70.364 42.0774L70.2997 42.1416L70.2374 42.2078L74.6066 46.32ZM71.0866 47V41C71.5386 41 72.0552 41.0877 72.5735 41.308C73.0866 41.5261 73.4698 41.8179 73.7293 42.0774L69.4866 46.32L65.244 50.5626C66.7658 52.0844 68.8035 53 71.0866 53V47ZM69.4866 46.32L73.8558 42.2078C74.1141 42.4822 74.3825 42.8642 74.5775 43.3517C74.7731 43.8407 74.8466 44.3156 74.8466 44.72H68.8466H62.8466C62.8466 46.8871 63.6607 48.8845 65.1174 50.4322L69.4866 46.32ZM68.8466 44.72H74.8466V28.48H68.8466H62.8466V44.72H68.8466ZM68.8466 28.48H74.8466C74.8466 28.8844 74.7731 29.3593 74.5775 29.8483C74.3825 30.3358 74.1141 30.7178 73.8558 30.9922L69.4866 26.88L65.1174 22.7678C63.6607 24.3155 62.8466 26.3129 62.8466 28.48H68.8466ZM69.4866 26.88L73.7293 31.1226C73.4698 31.3821 73.0866 31.6739 72.5735 31.892C72.0552 32.1123 71.5386 32.2 71.0866 32.2V26.2V20.2C68.8035 20.2 66.7658 21.1156 65.244 22.6374L69.4866 26.88ZM71.0866 26.2V32.2H72.7266V26.2V20.2H71.0866V26.2ZM72.7266 26.2V32.2C72.3247 32.2 71.8094 32.1256 71.2598 31.892C70.7065 31.6568 70.2705 31.3248 69.9574 30.9922L74.3266 26.88L78.6958 22.7678C77.0999 21.0721 74.9686 20.2 72.7266 20.2V26.2ZM74.3266 26.88L70.2145 31.2492C69.9046 30.9576 69.599 30.5598 69.3751 30.0622C69.1526 29.5678 69.0673 29.1008 69.0518 28.7298L75.0466 28.48L81.0414 28.2302C80.9516 26.0744 80.0701 24.0461 78.4388 22.5108L74.3266 26.88ZM75.0466 28.48L69.093 29.2242L69.133 29.5442L75.0866 28.8L81.0403 28.0558L81.0003 27.7358L75.0466 28.48ZM75.0866 28.8H69.0866C69.0866 29.7382 69.3253 31.5439 70.854 33.0726C72.3827 34.6014 74.1884 34.84 75.1266 34.84V28.84V22.84C76.0382 22.84 77.8239 23.0719 79.3393 24.5874C80.8547 26.1028 81.0866 27.8885 81.0866 28.8H75.0866ZM75.1266 28.84L79.3693 33.0826L79.4493 33.0026L75.2066 28.76L70.964 24.5174L70.884 24.5974L75.1266 28.84ZM75.2066 28.76L79.7145 32.7196C80.4145 31.9228 80.9002 31.8 81.4466 31.8V25.8V19.8C77.1398 19.8 73.4655 21.6505 70.6987 24.8004L75.2066 28.76ZM81.4466 25.8V31.8C82.1125 31.8 82.3665 31.8981 82.363 31.8967C82.3535 31.8929 82.2869 31.8646 82.1922 31.7946C82.0953 31.7229 82.0043 31.6337 81.9309 31.5383L86.6866 27.88L91.4424 24.2217C88.8422 20.8415 84.9689 19.8 81.4466 19.8V25.8ZM86.6866 27.88L81.9655 31.5828C81.7852 31.3529 81.8966 31.3707 82.0375 31.9869C82.1741 32.5846 82.2866 33.5194 82.2866 34.88H88.2866H94.2866C94.2866 31.284 93.7773 27.1984 91.4078 24.1772L86.6866 27.88ZM88.2866 34.88H82.2866V44.72H88.2866H94.2866V34.88H88.2866ZM88.2866 44.72H82.2866C82.2866 44.268 82.3744 43.7515 82.5947 43.2332C82.8127 42.7201 83.1045 42.3369 83.364 42.0774L87.6066 46.32L91.8493 50.5626C93.3711 49.0409 94.2866 47.0032 94.2866 44.72H88.2866ZM87.6066 46.32L83.2374 42.2078C83.5261 41.9012 83.9451 41.5713 84.4991 41.3298C85.0552 41.0874 85.5961 41 86.0466 41V47V53C88.3423 53 90.4346 52.0697 91.9758 50.4322L87.6066 46.32ZM86.0466 47V41H84.2866V47V53H86.0466V47ZM84.2866 47V41C84.7386 41 85.2552 41.0877 85.7735 41.308C86.2866 41.5261 86.6698 41.8179 86.9293 42.0774L82.6866 46.32L78.444 50.5626C79.9658 52.0844 82.0035 53 84.2866 53V47ZM82.6866 46.32L86.9293 42.0774C87.1888 42.3369 87.4806 42.7201 87.6986 43.2332C87.9189 43.7515 88.0066 44.268 88.0066 44.72H82.0066H76.0066C76.0066 47.0032 76.9222 49.0409 78.444 50.5626L82.6866 46.32ZM82.0066 44.72H88.0066V35.08H82.0066H76.0066V44.72H82.0066ZM82.0066 35.08H88.0066C88.0066 34.0459 87.9404 32.9605 87.7356 31.9109C87.5423 30.9205 87.149 29.5496 86.2191 28.271L81.3666 31.8L76.5142 35.329C76.245 34.9589 76.1055 34.6436 76.0397 34.471C75.9729 34.2955 75.9552 34.196 75.9577 34.2091C75.9595 34.2183 75.973 34.293 75.9854 34.4488C75.9975 34.6023 76.0066 34.8103 76.0066 35.08H82.0066ZM81.3666 31.8L86.2921 28.3736C84.2621 25.4555 81.1007 24.88 79.0466 24.88V30.88V36.88C79.0958 36.88 78.7698 36.8917 78.2549 36.6875C77.6743 36.4572 76.9765 35.9959 76.4412 35.2264L81.3666 31.8ZM79.0466 30.88V24.88C76.265 24.88 73.9659 26.0929 72.2765 27.7261L76.4466 32.04L80.6168 36.3539C80.5989 36.3713 80.4463 36.5133 80.1413 36.6494C79.8186 36.7933 79.4368 36.88 79.0466 36.88V30.88ZM76.4466 32.04L72.2791 27.7236C70.6124 29.3328 69.2866 31.6229 69.2866 34.48H75.2866H81.2866C81.2866 34.9525 81.1755 35.4073 80.9954 35.7862C80.8261 36.1424 80.6478 36.3239 80.6142 36.3564L76.4466 32.04ZM75.2866 34.48H69.2866V44.72H75.2866H81.2866V34.48H75.2866ZM75.2866 44.72H69.2866C69.2866 44.268 69.3744 43.7515 69.5947 43.2332C69.8127 42.7201 70.1045 42.3369 70.364 42.0774L74.6066 46.32L78.8493 50.5626C80.3711 49.0409 81.2866 47.0032 81.2866 44.72H75.2866ZM74.6066 46.32L70.2374 42.2078C70.5261 41.9012 70.9451 41.5713 71.4991 41.3298C72.0552 41.0874 72.5961 41 73.0466 41V47V53C75.3423 53 77.4346 52.0697 78.9758 50.4322L74.6066 46.32ZM73.0466 47V41H71.0866V47V53H73.0466V47ZM98.7779 41.12L93.9311 44.6568L98.7779 41.12ZM104.498 41.52L100.484 37.0602L100.484 37.0602L104.498 41.52ZM93.6579 44.56L88.9536 48.2842L88.9663 48.3003L88.9791 48.3162L93.6579 44.56ZM93.5779 28.6L98.2958 32.3069L98.2958 32.3069L93.5779 28.6ZM105.458 28.24L109.7 23.9973L109.601 23.8979L109.497 23.8034L105.458 28.24ZM106.218 17.68L101.975 13.4374L101.911 13.5016L101.849 13.5678L106.218 17.68ZM111.338 17.68L106.969 21.7922L107.031 21.8584L107.095 21.9226L111.338 17.68ZM111.338 46.32L107.095 42.0774L107.031 42.1416L106.969 42.2078L111.338 46.32ZM106.618 46.36L102.249 50.4722L102.373 50.6046L102.506 50.7292L106.618 46.36ZM105.938 44.72H99.9379V44.8449L99.9431 44.9698L105.938 44.72ZM105.898 44.36V38.36H103.413L101.655 40.1174L105.898 44.36ZM105.818 44.44L101.575 40.1974L101.405 40.3674L101.249 40.5505L105.818 44.44ZM101.698 30.6V24.6C98.6167 24.6 95.6211 25.8986 93.7056 28.7718C92.0763 31.2157 91.6979 34.1228 91.6979 36.6H97.6979H103.698C103.698 35.9144 103.757 35.4936 103.805 35.2766C103.854 35.0573 103.865 35.1667 103.69 35.4282C103.489 35.7297 103.135 36.0897 102.631 36.3416C102.152 36.581 101.785 36.6 101.698 36.6V30.6ZM97.6979 36.6H91.6979C91.6979 39.1361 92.1115 42.1633 93.9311 44.6568L98.7779 41.12L103.625 37.5832C103.84 37.8785 103.847 38.0357 103.804 37.8556C103.76 37.6741 103.698 37.2789 103.698 36.6H97.6979ZM98.7779 41.12L93.9311 44.6568C95.7864 47.1992 98.5647 48.6 101.698 48.6V42.6V36.6C101.909 36.6 102.307 36.6483 102.76 36.8782C103.215 37.1085 103.494 37.404 103.625 37.5832L98.7779 41.12ZM101.698 42.6V48.6C104.262 48.6 106.621 47.6814 108.512 45.9798L104.498 41.52L100.484 37.0602C100.586 36.9683 100.773 36.8346 101.039 36.732C101.305 36.6291 101.542 36.6 101.698 36.6V42.6ZM104.498 41.52L108.512 45.9798C110.318 44.3545 111.698 42.0067 111.698 39.08H105.698H99.6979C99.6979 38.6155 99.8085 38.1396 100.014 37.7221C100.208 37.3274 100.42 37.1175 100.484 37.0602L104.498 41.52ZM105.698 39.08H111.698V34.12H105.698H99.6979V39.08H105.698ZM105.698 34.12H111.698C111.698 31.1933 110.318 28.8455 108.512 27.2202L104.498 31.68L100.484 36.1398C100.42 36.0825 100.208 35.8726 100.014 35.4779C99.8085 35.0604 99.6979 34.5845 99.6979 34.12H105.698ZM104.498 31.68L108.512 27.2202C106.621 25.5186 104.262 24.6 101.698 24.6V30.6V36.6C101.542 36.6 101.305 36.5709 101.039 36.468C100.773 36.3654 100.586 36.2317 100.484 36.1398L104.498 31.68ZM99.4979 47.4V41.4C98.9918 41.4 98.7483 41.3166 98.3367 40.8038L93.6579 44.56L88.9791 48.3162C91.6074 51.5901 95.2573 53.4 99.4979 53.4V47.4ZM93.6579 44.56L98.3622 40.8358C97.9513 40.3167 97.3779 39.1456 97.3779 36.6H91.3779H85.3779C85.3779 40.8278 86.3245 44.9633 88.9536 48.2842L93.6579 44.56ZM91.3779 36.6H97.3779C97.3779 33.88 97.9659 32.7268 98.2958 32.3069L93.5779 28.6L88.86 24.8931C86.2566 28.2065 85.3779 32.3866 85.3779 36.6H91.3779ZM93.5779 28.6L98.2958 32.3069C98.5056 32.0398 98.6494 31.9589 98.7233 31.9239C98.8053 31.8851 99.0241 31.8 99.4979 31.8V25.8V19.8C95.2722 19.8 91.5219 21.5052 88.86 24.8931L93.5779 28.6ZM99.4979 25.8V31.8C100.029 31.8 100.611 31.9416 101.419 32.6766L105.458 28.24L109.497 23.8034C106.731 21.285 103.34 19.8 99.4979 19.8V25.8ZM105.458 28.24L101.215 32.4827C101.896 33.1633 103.359 34.28 105.538 34.28V28.28V22.28C107.664 22.28 109.073 23.37 109.7 23.9973L105.458 28.24ZM105.538 28.28V34.28C106.476 34.28 108.282 34.0414 109.81 32.5127C111.339 30.984 111.578 29.1782 111.578 28.24H105.578H99.5779C99.5779 27.3284 99.8099 25.5427 101.325 24.0273C102.841 22.5119 104.626 22.28 105.538 22.28V28.28ZM105.578 28.24H111.578V19.28H105.578H99.5779V28.24H105.578ZM105.578 19.28H111.578C111.578 19.6844 111.504 20.1593 111.309 20.6483C111.114 21.1358 110.845 21.5178 110.587 21.7922L106.218 17.68L101.849 13.5678C100.392 15.1156 99.5779 17.1129 99.5779 19.28H105.578ZM106.218 17.68L110.461 21.9226C110.201 22.1821 109.818 22.4739 109.305 22.692C108.786 22.9123 108.27 23 107.818 23V17V11C105.535 11 103.497 11.9156 101.975 13.4374L106.218 17.68ZM107.818 17V23H109.778V17V11H107.818V17ZM109.778 17V23C109.327 23 108.786 22.9126 108.23 22.6702C107.676 22.4287 107.257 22.0988 106.969 21.7922L111.338 17.68L115.707 13.5678C114.166 11.9303 112.074 11 109.778 11V17ZM111.338 17.68L107.095 21.9226C106.836 21.6631 106.544 21.2799 106.326 20.7668C106.106 20.2485 106.018 19.732 106.018 19.28H112.018H118.018C118.018 16.9968 117.102 14.9591 115.581 13.4374L111.338 17.68ZM112.018 19.28H106.018V44.72H112.018H118.018V19.28H112.018ZM112.018 44.72H106.018C106.018 44.268 106.106 43.7515 106.326 43.2332C106.544 42.7201 106.836 42.3369 107.095 42.0774L111.338 46.32L115.581 50.5626C117.102 49.0409 118.018 47.0032 118.018 44.72H112.018ZM111.338 46.32L106.969 42.2078C107.257 41.9012 107.676 41.5713 108.23 41.3298C108.786 41.0874 109.327 41 109.778 41V47V53C112.074 53 114.166 52.0697 115.707 50.4322L111.338 46.32ZM109.778 47V41H108.258V47V53H109.778V47ZM108.258 47V41C108.616 41 109.067 41.0623 109.549 41.2505C110.034 41.4399 110.432 41.7099 110.73 41.9908L106.618 46.36L102.506 50.7292C104.106 52.2355 106.137 53 108.258 53V47ZM106.618 46.36L110.987 42.2478C111.245 42.5221 111.491 42.8802 111.67 43.3119C111.848 43.7412 111.919 44.1443 111.933 44.4702L105.938 44.72L99.9431 44.9698C100.028 47.0051 100.803 48.9358 102.249 50.4722L106.618 46.36ZM105.938 44.72H111.938V44.4H105.938H99.9379V44.72H105.938ZM105.938 44.4H111.938C111.938 43.4618 111.699 41.6561 110.171 40.1274C108.642 38.5986 106.836 38.36 105.898 38.36V44.36V50.36C104.986 50.36 103.201 50.128 101.685 48.6126C100.17 47.0972 99.9379 45.3115 99.9379 44.4H105.938ZM105.898 44.36L101.655 40.1174L101.575 40.1974L105.818 44.44L110.061 48.6826L110.141 48.6026L105.898 44.36ZM105.818 44.44L101.249 40.5505C100.679 41.2203 100.227 41.4 99.4979 41.4V47.4V53.4C103.836 53.4 107.597 51.6064 110.386 48.3295L105.818 44.44ZM122.26 46.68L128.081 45.2248L128.002 44.9107L127.89 44.6069L122.26 46.68ZM115.5 28.32L121.13 26.2469L121.083 26.1181L121.03 25.9917L115.5 28.32ZM115.66 26.88L120.562 30.3401L120.562 30.3401L115.66 26.88ZM121.26 26.84L117.512 31.5252L117.585 31.5838L117.66 31.64L121.26 26.84ZM122.3 28.4L128.128 26.9757L128.124 26.9602L128.121 26.9448L122.3 28.4ZM125.34 40.84H131.34V40.1175L131.168 39.4157L125.34 40.84ZM125.42 40.84L119.66 39.16L119.42 39.9829V40.84H125.42ZM129.06 28.36L134.82 30.04L134.852 29.9282L134.881 29.8152L129.06 28.36ZM130.1 26.8L126.612 21.9176L126.556 21.9581L126.5 22L130.1 26.8ZM135.46 26.88L130.558 30.3401L130.558 30.3401L135.46 26.88ZM135.66 28.32L141.283 30.4131L141.286 30.4037L141.29 30.3942L135.66 28.32ZM126.22 53.68L131.838 55.7867L131.84 55.7799L131.843 55.7731L126.22 53.68ZM125.02 55.2L121.692 50.2077L121.611 50.2614L121.532 50.3176L125.02 55.2ZM119.7 55.12L124.737 51.8605L124.692 51.79L124.644 51.7208L119.7 55.12ZM119.58 53.72L125.11 56.0483L125.114 56.0375L119.58 53.72ZM122.26 47.32L127.794 49.6375L127.97 49.2172L128.081 48.7752L122.26 47.32ZM122.26 46.68L127.89 44.6069L121.13 26.2469L115.5 28.32L109.869 30.3931L116.629 48.7531L122.26 46.68ZM115.5 28.32L121.03 25.9917C121.265 26.5496 121.444 27.3312 121.343 28.2426C121.242 29.1512 120.898 29.8635 120.562 30.3401L115.66 26.88L110.758 23.4199C109.257 25.5457 108.944 28.2113 109.97 30.6483L115.5 28.32ZM115.66 26.88L120.562 30.3401C120.233 30.8054 119.715 31.3238 118.978 31.7038C118.242 32.0829 117.529 32.2 116.98 32.2V26.2V20.2C114.492 20.2 112.215 21.3564 110.758 23.4199L115.66 26.88ZM116.98 26.2V32.2H119.5V26.2V20.2H116.98V26.2ZM119.5 26.2V32.2C119.138 32.2 118.75 32.1371 118.369 31.9988C117.994 31.8621 117.707 31.6818 117.512 31.5252L121.26 26.84L125.008 22.1548C123.487 20.9384 121.597 20.2 119.5 20.2V26.2ZM121.26 26.84L117.66 31.64C117.419 31.4592 117.156 31.2009 116.927 30.8582C116.699 30.5148 116.556 30.165 116.479 29.8552L122.3 28.4L128.121 26.9448C127.623 24.9526 126.483 23.2573 124.86 22.04L121.26 26.84ZM122.3 28.4L116.471 29.8243L119.511 42.2643L125.34 40.84L131.168 39.4157L128.128 26.9757L122.3 28.4ZM125.34 40.84H119.34C119.34 41.7782 119.578 43.5839 121.107 45.1127C122.636 46.6414 124.442 46.88 125.38 46.88V40.88V34.88C126.291 34.88 128.077 35.1119 129.592 36.6273C131.108 38.1427 131.34 39.9284 131.34 40.84H125.34ZM125.38 40.88V46.88C126.318 46.88 128.124 46.6414 129.652 45.1126C131.181 43.5839 131.42 41.7782 131.42 40.84H125.42H119.42C119.42 39.9285 119.652 38.1428 121.167 36.6274C122.683 35.112 124.468 34.88 125.38 34.88V40.88ZM125.42 40.84L131.18 42.52L134.82 30.04L129.06 28.36L123.3 26.68L119.66 39.16L125.42 40.84ZM129.06 28.36L134.881 29.8152C134.803 30.125 134.661 30.4748 134.432 30.8182C134.204 31.1609 133.941 31.4192 133.7 31.6L130.1 26.8L126.5 22C124.877 23.2173 123.737 24.9126 123.239 26.9048L129.06 28.36ZM130.1 26.8L133.587 31.6824C133.383 31.8282 133.122 31.9676 132.814 32.066C132.506 32.1641 132.219 32.2 131.98 32.2V26.2V20.2C130.046 20.2 128.198 20.7849 126.612 21.9176L130.1 26.8ZM131.98 26.2V32.2H134.18V26.2V20.2H131.98V26.2ZM134.18 26.2V32.2C133.569 32.2 132.826 32.0623 132.085 31.6687C131.353 31.2797 130.859 30.7668 130.558 30.3401L135.46 26.88L140.362 23.4199C138.971 21.4502 136.754 20.2 134.18 20.2V26.2ZM135.46 26.88L130.558 30.3401C130.246 29.8984 129.923 29.2436 129.807 28.4054C129.689 27.5603 129.821 26.811 130.03 26.2458L135.66 28.32L141.29 30.3942C142.181 27.9749 141.782 25.4326 140.362 23.4199L135.46 26.88ZM135.66 28.32L130.037 26.2269L120.597 51.5869L126.22 53.68L131.843 55.7731L141.283 30.4131L135.66 28.32ZM126.22 53.68L120.602 51.5733C120.687 51.3468 120.824 51.0836 121.03 50.8221C121.237 50.5599 121.47 50.3556 121.692 50.2077L125.02 55.2L128.348 60.1923C129.972 59.1094 131.163 57.5852 131.838 55.7867L126.22 53.68ZM125.02 55.2L121.532 50.3176C121.717 50.1861 121.968 50.0474 122.28 49.9456C122.594 49.8433 122.903 49.8 123.18 49.8V55.8V61.8C125.139 61.8 126.965 61.1842 128.507 60.0824L125.02 55.2ZM123.18 55.8V49.8H120.98V55.8V61.8H123.18V55.8ZM120.98 55.8V49.8C121.524 49.8 122.273 49.9158 123.055 50.3313C123.846 50.7517 124.395 51.3321 124.737 51.8605L119.7 55.12L114.662 58.3795C116.11 60.6167 118.476 61.8 120.98 61.8V55.8ZM119.7 55.12L124.644 51.7208C125.023 52.2714 125.35 53.029 125.428 53.9376C125.504 54.829 125.315 55.5609 125.11 56.0483L119.58 53.72L114.05 51.3917C113.102 53.6429 113.221 56.2866 114.756 58.5192L119.7 55.12ZM119.58 53.72L125.114 56.0375L127.794 49.6375L122.26 47.32L116.725 45.0025L114.045 51.4025L119.58 53.72ZM122.26 47.32L128.081 48.7752C128.223 48.2073 128.3 47.6122 128.3 47H122.3H116.3C116.3 46.6012 116.35 46.2193 116.439 45.8648L122.26 47.32ZM122.3 47H128.3C128.3 46.3878 128.223 45.7927 128.081 45.2248L122.26 46.68L116.439 48.1352C116.35 47.7807 116.3 47.3988 116.3 47H122.3ZM158.082 35.32L159.907 29.604L159.898 29.6013L158.082 35.32ZM150.802 31.36L146.416 35.4539L146.433 35.4723L146.45 35.4906L150.802 31.36ZM151.162 19.6L154.996 24.2151L155.003 24.2093L151.162 19.6ZM165.362 18.24L167.042 12.48L167.011 12.4709L166.98 12.4622L165.362 18.24ZM166.882 19.4L161.82 22.6213L161.907 22.7567L162 22.8874L166.882 19.4ZM166.802 23.68L170.062 28.7174L170.062 28.7174L166.802 23.68ZM165.362 23.84L167.437 18.2099L167.398 18.1957L167.359 18.1821L165.362 23.84ZM158.602 29L156.748 34.7062L156.801 34.7236L156.855 34.74L158.602 29ZM166.242 32.92L161.885 37.0443L161.904 37.0647L161.923 37.0848L166.242 32.92ZM151.322 46.32L153.481 40.722L153.455 40.7119L153.429 40.702L151.322 46.32ZM149.802 45.08L144.579 48.0323L144.656 48.1689L144.74 48.3013L149.802 45.08ZM149.922 40.72L152.864 45.9495L152.985 45.8815L153.102 45.808L149.922 40.72ZM151.202 40.64L148.519 46.0066L148.534 46.0139L148.549 46.0212L151.202 40.64ZM160.362 41.28L163.934 46.1013L163.948 46.0907L163.962 46.08L160.362 41.28ZM158.082 35.32L159.898 29.6013C156.964 28.6701 155.643 27.7445 155.154 27.2294L150.802 31.36L146.45 35.4906C148.948 38.1221 152.48 39.8366 156.267 41.0387L158.082 35.32ZM150.802 31.36L155.189 27.2661C154.786 26.8343 154.562 26.3737 154.562 25.52H148.562H142.562C142.562 29.253 143.832 32.6857 146.416 35.4539L150.802 31.36ZM148.562 25.52H154.562C154.562 24.5708 154.8 24.378 154.996 24.2151L151.162 19.6L147.328 14.9849C144.058 17.702 142.562 21.4559 142.562 25.52H148.562ZM151.162 19.6L155.003 24.2093C155.311 23.9532 156.253 23.4 158.682 23.4V17.4V11.4C154.605 11.4 150.534 12.3134 147.321 14.9907L151.162 19.6ZM158.682 17.4V23.4C160.685 23.4 162.356 23.6291 163.744 24.0178L165.362 18.24L166.98 12.4622C164.368 11.7309 161.586 11.4 158.682 11.4V17.4ZM165.362 18.24L163.682 24C163.327 23.8963 162.943 23.7147 162.582 23.4397C162.225 23.1672 161.978 22.8695 161.82 22.6213L166.882 19.4L171.944 16.1787C170.826 14.4213 169.145 13.0932 167.042 12.48L165.362 18.24ZM166.882 19.4L162 22.8874C161.854 22.6833 161.715 22.4223 161.616 22.1142C161.518 21.8066 161.482 21.5188 161.482 21.28H167.482H173.482C173.482 19.3462 172.897 17.4983 171.765 15.9126L166.882 19.4ZM167.482 21.28H161.482V22.44H167.482H173.482V21.28H167.482ZM167.482 22.44H161.482C161.482 21.8326 161.619 21.0534 162.051 20.265C162.482 19.4797 163.057 18.957 163.543 18.6426L166.802 23.68L170.062 28.7174C172.198 27.3351 173.482 25.0391 173.482 22.44H167.482ZM166.802 23.68L163.543 18.6426C164.005 18.3436 164.649 18.0645 165.44 17.9767C166.23 17.8889 166.92 18.0197 167.437 18.2099L165.362 23.84L163.288 29.4701C165.567 30.3096 168.023 30.0367 170.062 28.7174L166.802 23.68ZM165.362 23.84L167.359 18.1821C164.606 17.2103 161.829 16.64 159.082 16.64V22.64V28.64C160.175 28.64 161.585 28.8697 163.365 29.4979L165.362 23.84ZM159.082 22.64V16.64C157.237 16.64 154.748 16.9731 152.624 18.635C150.221 20.5158 149.402 23.1894 149.402 25.52H155.402H161.402C161.402 25.6698 161.379 26.0796 161.152 26.6112C160.911 27.179 160.516 27.6972 160.02 28.085C159.123 28.7869 158.474 28.64 159.082 28.64V22.64ZM155.402 25.52H149.402C149.402 27.7842 150.198 29.9451 151.786 31.6712C153.251 33.2651 155.091 34.1679 156.748 34.7062L158.602 29L160.457 23.2938C159.98 23.1388 160.22 23.1149 160.619 23.5488C160.836 23.785 161.053 24.1086 161.206 24.5076C161.357 24.9034 161.402 25.2599 161.402 25.52H155.402ZM158.602 29L156.855 34.74C160.269 35.779 161.573 36.715 161.885 37.0443L166.242 32.92L170.6 28.7957C168.085 26.1383 164.295 24.461 160.349 23.26L158.602 29ZM166.242 32.92L161.923 37.0848C162.103 37.2715 162.402 37.644 162.402 38.8H168.402H174.402C174.402 35.1027 173.261 31.5551 170.561 28.7552L166.242 32.92ZM168.402 38.8H162.402C162.402 39.613 162.274 40.0471 162.193 40.2384C162.128 40.3931 162.066 40.468 161.963 40.5496C161.67 40.7819 160.543 41.4 157.562 41.4V47.4V53.4C161.808 53.4 166.101 52.5848 169.421 49.9504C173.007 47.1059 174.402 43.0083 174.402 38.8H168.402ZM157.562 47.4V41.4C155.901 41.4 154.566 41.1404 153.481 40.722L151.322 46.32L149.163 51.918C151.812 52.9396 154.637 53.4 157.562 53.4V47.4ZM151.322 46.32L153.429 40.702C153.692 40.8007 153.98 40.9566 154.255 41.1808C154.529 41.4043 154.729 41.6458 154.864 41.8587L149.802 45.08L144.74 48.3013C145.8 49.9657 147.334 51.2324 149.216 51.938L151.322 46.32ZM149.802 45.08L155.026 42.1277C155.103 42.2641 155.172 42.428 155.219 42.6102C155.266 42.7917 155.282 42.9536 155.282 43.08H149.282H143.282C143.282 44.8108 143.712 46.4978 144.579 48.0323L149.802 45.08ZM149.282 43.08H155.282V41.8H149.282H143.282V43.08H149.282ZM149.282 41.8H155.282C155.282 42.4753 155.123 43.3535 154.604 44.2288C154.089 45.0981 153.411 45.6417 152.864 45.9495L149.922 40.72L146.981 35.4905C144.711 36.767 143.282 39.0993 143.282 41.8H149.282ZM149.922 40.72L153.102 45.808C152.62 46.1096 151.881 46.4293 150.937 46.4883C149.975 46.5484 149.14 46.317 148.519 46.0066L151.202 40.64L153.886 35.2734C151.468 34.0649 148.824 34.3311 146.742 35.632L149.922 40.72ZM151.202 40.64L148.549 46.0212C151.261 47.3588 154.151 48.08 157.162 48.08V42.08V36.08C156.12 36.08 155.037 35.8412 153.856 35.2588L151.202 40.64ZM157.162 42.08V48.08C159.171 48.08 161.737 47.7285 163.934 46.1013L160.362 41.28L156.791 36.4587C157.19 36.1631 157.505 36.0747 157.567 36.0591C157.622 36.0453 157.51 36.08 157.162 36.08V42.08ZM160.362 41.28L163.962 46.08C166.364 44.2789 167.482 41.6344 167.482 38.92H161.482H155.482C155.482 38.6819 155.529 38.2296 155.782 37.6975C156.042 37.1491 156.415 36.7408 156.762 36.48L160.362 41.28ZM161.482 38.92H167.482C167.482 36.8139 166.839 34.5774 165.171 32.7345L160.722 36.76L156.273 40.7855C155.986 40.4681 155.767 40.0949 155.632 39.7114C155.502 39.342 155.482 39.0563 155.482 38.92H161.482ZM160.722 36.76L165.171 32.7345C163.605 31.0028 161.517 30.118 159.907 29.604L158.082 35.32L156.258 41.036C156.436 41.0927 156.569 41.1424 156.664 41.1816C156.76 41.2212 156.805 41.245 156.809 41.2474C156.814 41.2501 156.762 41.2224 156.672 41.155C156.582 41.0876 156.438 40.9683 156.273 40.7855L160.722 36.76ZM177.438 42.2L173.195 46.4426L173.264 46.5111L173.334 46.5772L177.438 42.2ZM182.278 41.6L186.521 45.8426L186.555 45.8079L186.589 45.7725L182.278 41.6ZM172.638 45.64L168.348 49.8347L168.395 49.8829L168.443 49.93L172.638 45.64ZM182.678 31L178.677 35.4714L178.734 35.5223L178.792 35.5716L182.678 31ZM174.238 31.08L175.361 36.974L175.454 36.9562L175.547 36.9355L174.238 31.08ZM172.718 30.72L168.934 35.3767L169.003 35.4324L169.073 35.4861L172.718 30.72ZM172.678 27.48L167.905 23.8437L167.892 23.8618L167.878 23.88L172.678 27.48ZM174.278 26.48L175.264 32.3984L175.34 32.3857L175.416 32.3711L174.278 26.48ZM187.758 27.68L183.819 32.2058L183.839 32.2237L183.86 32.2414L187.758 27.68ZM189.278 46.32L193.521 50.5626L193.521 50.5626L189.278 46.32ZM184.558 46.36L180.315 50.6026L180.38 50.6669L180.446 50.7292L184.558 46.36ZM183.838 44.72H177.838V44.8449L177.843 44.9698L183.838 44.72ZM183.718 44.28L188.386 48.05L189.718 46.4004V44.28H183.718ZM181.678 37.48V31.48C179.631 31.48 177.086 31.7595 174.876 33.1186C172.187 34.7717 170.798 37.5155 170.798 40.48H176.798H182.798C182.798 40.8064 182.726 41.3844 182.377 42.0275C182.022 42.6831 181.54 43.1077 181.16 43.3414C180.82 43.5505 180.625 43.5703 180.747 43.5454C180.862 43.5219 181.154 43.48 181.678 43.48V37.48ZM176.798 40.48H170.798C170.798 42.4616 171.43 44.6773 173.195 46.4426L177.438 42.2L181.681 37.9574C182.085 38.3619 182.392 38.8482 182.581 39.3576C182.763 39.8474 182.798 40.2495 182.798 40.48H176.798ZM177.438 42.2L173.334 46.5772C175.117 48.2481 177.284 48.8 179.158 48.8V42.8V36.8C179.349 36.8 179.71 36.8263 180.164 36.9848C180.638 37.15 181.12 37.4276 181.542 37.8228L177.438 42.2ZM179.158 42.8V48.8C181.801 48.8 184.444 47.9193 186.521 45.8426L182.278 41.6L178.035 37.3574C178.219 37.1731 178.468 37.006 178.744 36.8999C179.006 36.7993 179.17 36.8 179.158 36.8V42.8ZM182.278 41.6L186.589 45.7725C188.667 43.6261 189.478 40.9337 189.478 38.32H183.478H177.478C177.478 38.4127 177.465 38.3131 177.543 38.0985C177.628 37.8664 177.775 37.6249 177.966 37.4275L182.278 41.6ZM183.478 38.32H189.478V37.84H183.478H177.478V38.32H183.478ZM183.478 37.84H189.478C189.478 36.7951 189.213 34.9094 187.631 33.3274C186.048 31.7453 184.163 31.48 183.118 31.48V37.48V43.48C182.313 43.48 180.607 43.2747 179.145 41.8126C177.683 40.3506 177.478 38.6449 177.478 37.84H183.478ZM183.118 37.48V31.48H181.678V37.48V43.48H183.118V37.48ZM177.198 47.4V41.4C177.057 41.4 176.964 41.3888 176.91 41.3794C176.883 41.3747 176.865 41.3702 176.854 41.3673C176.843 41.3643 176.838 41.3625 176.838 41.3625C176.838 41.3624 176.839 41.3627 176.84 41.3633C176.842 41.3639 176.844 41.3648 176.846 41.3659C176.85 41.3682 176.854 41.3706 176.857 41.3726C176.865 41.3776 176.857 41.3737 176.833 41.35L172.638 45.64L168.443 49.93C170.877 52.3101 173.955 53.4 177.198 53.4V47.4ZM172.638 45.64L176.928 41.4453C176.912 41.4292 176.913 41.4271 176.92 41.4379C176.927 41.4489 176.929 41.4562 176.928 41.4521C176.927 41.4493 176.878 41.3235 176.878 41H170.878H164.878C164.878 44.2429 165.935 47.3666 168.348 49.8347L172.638 45.64ZM170.878 41H176.878C176.878 40.5309 176.962 40.4114 176.931 40.4746C176.887 40.5639 176.834 40.5807 176.932 40.5152C177.282 40.279 178.564 39.72 181.678 39.72V33.72V27.72C177.592 27.72 173.474 28.3743 170.224 30.5648C166.554 33.0391 164.878 36.8537 164.878 41H170.878ZM181.678 33.72V39.72H183.118V33.72V27.72H181.678V33.72ZM183.118 33.72V39.72C184 39.72 185.782 39.5393 187.374 38.1245C189.1 36.5899 189.478 34.6266 189.478 33.4H183.478H177.478C177.478 32.3868 177.795 30.5834 179.402 29.1555C180.873 27.8474 182.476 27.72 183.118 27.72V33.72ZM183.478 33.4H189.478V33.2H183.478H177.478V33.4H183.478ZM183.478 33.2H189.478C189.478 31.2371 188.953 28.4589 186.564 26.4284L182.678 31L178.792 35.5716C178.177 35.0493 177.82 34.4372 177.639 33.9405C177.555 33.7078 177.515 33.5198 177.497 33.398C177.478 33.2769 177.478 33.2067 177.478 33.2H183.478ZM182.678 31L186.679 26.5286C184.476 24.5578 181.715 24.32 180.078 24.32V30.32V36.32C180.353 36.32 180.336 36.3488 180.13 36.2948C179.923 36.2407 179.323 36.0492 178.677 35.4714L182.678 31ZM180.078 30.32V24.32C177.868 24.32 175.459 24.659 172.929 25.2245L174.238 31.08L175.547 36.9355C177.55 36.4877 179.034 36.32 180.078 36.32V30.32ZM174.238 31.08L173.115 25.186C173.586 25.0964 174.177 25.079 174.821 25.2315C175.464 25.384 175.984 25.6644 176.363 25.9539L172.718 30.72L169.073 35.4861C170.881 36.8687 173.121 37.4006 175.361 36.974L174.238 31.08ZM172.718 30.72L176.501 26.0633C176.918 26.4022 177.354 26.8999 177.667 27.5652C177.978 28.2273 178.078 28.8614 178.078 29.36H172.078H166.078C166.078 31.6876 167.075 33.8662 168.934 35.3767L172.718 30.72ZM172.078 29.36H178.078V29.28H172.078H166.078V29.36H172.078ZM172.078 29.28H178.078C178.078 29.5565 178.035 29.8831 177.92 30.2274C177.805 30.5716 177.644 30.8588 177.478 31.08L172.678 27.48L167.878 23.88C166.699 25.4519 166.078 27.3151 166.078 29.28H172.078ZM172.678 27.48L177.45 31.1163C177.277 31.3439 176.994 31.6378 176.578 31.898C176.154 32.163 175.698 32.3261 175.264 32.3984L174.278 26.48L173.291 20.5616C171.011 20.9418 169.172 22.1818 167.905 23.8437L172.678 27.48ZM174.278 26.48L175.416 32.3711C177.524 31.9638 179.151 31.8 180.358 31.8V25.8V19.8C178.152 19.8 175.725 20.0895 173.14 20.5889L174.278 26.48ZM180.358 25.8V31.8C181.777 31.8 182.741 31.9305 183.35 32.0853C183.964 32.2411 184.003 32.366 183.819 32.2058L187.758 27.68L191.697 23.1542C188.565 20.4279 184.231 19.8 180.358 19.8V25.8ZM187.758 27.68L183.86 32.2414C183.682 32.089 183.682 31.9856 183.749 32.175C183.831 32.4069 183.958 32.9427 183.958 33.92H189.958H195.958C195.958 30.158 195.015 25.9891 191.656 23.1186L187.758 27.68ZM189.958 33.92H183.958V44.72H189.958H195.958V33.92H189.958ZM189.958 44.72H183.958C183.958 44.268 184.046 43.7515 184.266 43.2332C184.484 42.7201 184.776 42.3369 185.035 42.0774L189.278 46.32L193.521 50.5626C195.042 49.0409 195.958 47.0032 195.958 44.72H189.958ZM189.278 46.32L185.035 42.0774C185.295 41.8179 185.678 41.5261 186.191 41.308C186.709 41.0877 187.226 41 187.678 41V47V53C189.961 53 191.999 52.0844 193.521 50.5626L189.278 46.32ZM187.678 47V41H186.198V47V53H187.678V47ZM186.198 47V41C186.556 41 187.007 41.0623 187.489 41.2505C187.974 41.4399 188.372 41.7099 188.67 41.9908L184.558 46.36L180.446 50.7292C182.046 52.2355 184.077 53 186.198 53V47ZM184.558 46.36L188.801 42.1174C189.062 42.3787 189.331 42.7397 189.532 43.1981C189.733 43.6565 189.817 44.0994 189.833 44.4702L183.838 44.72L177.843 44.9698C177.932 47.1148 178.799 49.0862 180.315 50.6026L184.558 46.36ZM183.838 44.72H189.838V44.28H183.838H177.838V44.72H183.838ZM183.838 44.28H189.838C189.838 43.3418 189.599 41.5361 188.071 40.0074C186.542 38.4786 184.736 38.24 183.798 38.24V44.24V50.24C182.886 50.24 181.101 50.008 179.585 48.4926C178.07 46.9772 177.838 45.1915 177.838 44.28H183.838ZM183.798 44.24V38.24C183.465 38.24 182.322 38.2499 181.055 38.8834C180.336 39.2427 179.437 39.8749 178.731 40.9343C177.999 42.0313 177.718 43.2234 177.718 44.28H183.718H189.718C189.718 45.3232 189.44 46.5037 188.715 47.5907C188.016 48.6401 187.126 49.264 186.421 49.6166C185.181 50.2368 184.078 50.24 183.798 50.24V44.24ZM183.718 44.28L179.05 40.51C178.506 41.184 178.046 41.4 177.198 41.4V47.4V53.4C181.683 53.4 185.57 51.536 188.386 48.05L183.718 44.28ZM201.762 41.52L197.668 45.9063L197.743 45.9767L197.821 46.0445L201.762 41.52ZM207.482 41.12L212.329 44.6568L212.351 44.6262L212.373 44.5952L207.482 41.12ZM201.762 31.72L205.776 36.1798L205.784 36.1726L201.762 31.72ZM194.922 55.12L199.165 50.8774L199.165 50.8774L194.922 55.12ZM194.922 26.88L199.165 31.1226L199.165 31.1226L194.922 26.88ZM199.762 26.88L195.519 31.1226L195.584 31.1869L195.65 31.2492L199.762 26.88ZM200.482 28.48H206.482V28.3551L206.477 28.2302L200.482 28.48ZM200.522 28.84V34.84H203.007L204.765 33.0826L200.522 28.84ZM200.602 28.76L204.845 33.0026L204.998 32.8491L205.14 32.6849L200.602 28.76ZM212.682 28.6L207.964 32.3069L207.98 32.3276L207.997 32.3482L212.682 28.6ZM212.602 44.52L207.929 40.756L207.913 40.7758L207.898 40.7958L212.602 44.52ZM200.842 44.96L196.599 49.2026L196.667 49.27L196.736 49.3351L200.842 44.96ZM200.562 34.12H194.562V39.08H200.562H206.562V34.12H200.562ZM200.562 39.08H194.562C194.562 42.0118 195.969 44.3205 197.668 45.9063L201.762 41.52L205.856 37.1337C205.881 37.1567 206.066 37.336 206.246 37.7021C206.439 38.0938 206.562 38.5739 206.562 39.08H200.562ZM201.762 41.52L197.821 46.0445C199.676 47.6599 201.99 48.6 204.562 48.6V42.6V36.6C204.751 36.6 204.992 36.6358 205.241 36.732C205.486 36.8264 205.64 36.9406 205.703 36.9955L201.762 41.52ZM204.562 42.6V48.6C207.695 48.6 210.473 47.1993 212.329 44.6568L207.482 41.12L202.635 37.5832C202.766 37.404 203.045 37.1085 203.499 36.8782C203.953 36.6483 204.351 36.6 204.562 36.6V42.6ZM207.482 41.12L212.373 44.5952C214.134 42.1175 214.562 39.1491 214.562 36.6H208.562H202.562C202.562 37.2586 202.501 37.6489 202.456 37.8356C202.412 38.0189 202.411 37.8982 202.591 37.6448L207.482 41.12ZM208.562 36.6H214.562C214.562 34.1228 214.184 31.2157 212.554 28.7718C210.639 25.8986 207.643 24.6 204.562 24.6V30.6V36.6C204.475 36.6 204.108 36.581 203.629 36.3416C203.125 36.0897 202.771 35.7297 202.57 35.4282C202.395 35.1667 202.406 35.0573 202.455 35.2766C202.503 35.4936 202.562 35.9144 202.562 36.6H208.562ZM204.562 30.6V24.6C201.925 24.6 199.584 25.6019 197.74 27.2674L201.762 31.72L205.784 36.1726C205.727 36.2239 205.57 36.3468 205.31 36.4509C205.044 36.5575 204.778 36.6 204.562 36.6V30.6ZM201.762 31.72L197.748 27.2602C195.989 28.8434 194.562 31.1677 194.562 34.12H200.562H206.562C206.562 34.6272 206.438 35.1243 206.229 35.5433C206.032 35.9363 205.823 36.137 205.776 36.1798L201.762 31.72ZM196.522 55.8V49.8C196.974 49.8 197.49 49.8877 198.009 50.108C198.522 50.3261 198.905 50.6179 199.165 50.8774L194.922 55.12L190.679 59.3626C192.201 60.8844 194.239 61.8 196.522 61.8V55.8ZM194.922 55.12L199.165 50.8774C199.424 51.1369 199.716 51.5201 199.934 52.0332C200.154 52.5515 200.242 53.068 200.242 53.52H194.242H188.242C188.242 55.8032 189.158 57.8409 190.679 59.3626L194.922 55.12ZM194.242 53.52H200.242V28.48H194.242H188.242V53.52H194.242ZM194.242 28.48H200.242C200.242 28.932 200.154 29.4485 199.934 29.9668C199.716 30.4799 199.424 30.8631 199.165 31.1226L194.922 26.88L190.679 22.6374C189.158 24.1591 188.242 26.1968 188.242 28.48H194.242ZM194.922 26.88L199.165 31.1226C198.905 31.3821 198.522 31.6739 198.009 31.892C197.49 32.1123 196.974 32.2 196.522 32.2V26.2V20.2C194.239 20.2 192.201 21.1156 190.679 22.6374L194.922 26.88ZM196.522 26.2V32.2H198.122V26.2V20.2H196.522V26.2ZM198.122 26.2V32.2C197.718 32.2 197.227 32.125 196.714 31.9125C196.201 31.6999 195.803 31.4059 195.519 31.1226L199.762 26.88L204.005 22.6374C202.428 21.061 200.356 20.2 198.122 20.2V26.2ZM199.762 26.88L195.65 31.2492C195.34 30.9576 195.034 30.5598 194.81 30.0622C194.588 29.5678 194.503 29.1008 194.487 28.7298L200.482 28.48L206.477 28.2302C206.387 26.0744 205.505 24.0461 203.874 22.5108L199.762 26.88ZM200.482 28.48H194.482V28.8H200.482H206.482V28.48H200.482ZM200.482 28.8H194.482C194.482 29.7382 194.721 31.5439 196.249 33.0726C197.778 34.6014 199.584 34.84 200.522 34.84V28.84V22.84C201.433 22.84 203.219 23.0719 204.735 24.5874C206.25 26.1028 206.482 27.8885 206.482 28.8H200.482ZM200.522 28.84L204.765 33.0826L204.845 33.0026L200.602 28.76L196.359 24.5174L196.279 24.5974L200.522 28.84ZM200.602 28.76L205.14 32.6849C205.819 31.8998 206.268 31.8 206.762 31.8V25.8V19.8C202.455 19.8 198.798 21.6735 196.064 24.8351L200.602 28.76ZM206.762 25.8V31.8C207.236 31.8 207.455 31.8851 207.537 31.9239C207.61 31.9589 207.754 32.0398 207.964 32.3069L212.682 28.6L217.4 24.8931C214.738 21.5052 210.988 19.8 206.762 19.8V25.8ZM212.682 28.6L207.997 32.3482C208.33 32.7642 208.922 33.9004 208.922 36.6H214.922H220.922C220.922 32.3662 220.021 28.1691 217.367 24.8518L212.682 28.6ZM214.922 36.6H208.922C208.922 39.0845 208.351 40.2323 207.929 40.756L212.602 44.52L217.274 48.284C219.946 44.9677 220.922 40.8355 220.922 36.6H214.922ZM212.602 44.52L207.898 40.7958C207.619 41.1481 207.427 41.26 207.348 41.2988C207.275 41.3347 207.116 41.4 206.762 41.4V47.4V53.4C211.036 53.4 214.69 51.5485 217.306 48.2442L212.602 44.52ZM206.762 47.4V41.4C206.193 41.4 205.659 41.2523 204.948 40.5849L200.842 44.96L196.736 49.3351C199.492 51.9211 202.904 53.4 206.762 53.4V47.4ZM200.842 44.96L205.085 40.7174C204.404 40.0367 202.941 38.92 200.762 38.92V44.92V50.92C198.636 50.92 197.227 49.8299 196.599 49.2026L200.842 44.96ZM200.762 44.92V38.92C199.824 38.92 198.018 39.1586 196.489 40.6874C194.961 42.2161 194.722 44.0218 194.722 44.96H200.722H206.722C206.722 45.8715 206.49 47.6572 204.975 49.1726C203.459 50.6881 201.673 50.92 200.762 50.92V44.92ZM200.722 44.96H194.722V53.52H200.722H206.722V44.96H200.722ZM200.722 53.52H194.722C194.722 53.068 194.81 52.5515 195.03 52.0332C195.248 51.5201 195.54 51.1369 195.799 50.8774L200.042 55.12L204.285 59.3626C205.806 57.8409 206.722 55.8032 206.722 53.52H200.722ZM200.042 55.12L195.799 50.8774C196.059 50.6179 196.442 50.3261 196.955 50.108C197.473 49.8877 197.99 49.8 198.442 49.8V55.8V61.8C200.725 61.8 202.763 60.8844 204.285 59.3626L200.042 55.12ZM198.442 55.8V49.8H196.522V55.8V61.8H198.442V55.8ZM219.568 45.44L214.873 49.1765L214.896 49.2055L214.92 49.2343L219.568 45.44ZM218.688 26.88L222.93 31.1226L222.93 31.1226L218.688 26.88ZM223.648 26.88L219.405 31.1226L219.405 31.1226L223.648 26.88ZM224.928 41.48L219.97 44.86L220.059 44.9906L220.155 45.1163L224.928 41.48ZM229.648 41.2L233.815 45.5164L233.853 45.4799L233.89 45.4426L229.648 41.2ZM231.488 26.88L235.73 31.1226L235.73 31.1226L231.488 26.88ZM236.608 26.88L232.365 31.1226L232.365 31.1226L236.608 26.88ZM231.728 46.36L227.358 50.4722L227.483 50.6046L227.615 50.7292L231.728 46.36ZM231.048 44.72H225.048V44.8449L225.053 44.9698L231.048 44.72ZM231.008 44.36V38.36H228.522L226.765 40.1174L231.008 44.36ZM230.928 44.44L226.685 40.1974L226.548 40.3346L226.42 40.4804L230.928 44.44ZM224.688 47.4V41.4C224.376 41.4 224.152 41.3781 224.002 41.354C223.853 41.3299 223.791 41.3059 223.793 41.3065C223.798 41.3084 223.859 41.3331 223.95 41.3977C224.044 41.4638 224.137 41.5491 224.216 41.6457L219.568 45.44L214.92 49.2343C217.524 52.4245 221.28 53.4 224.688 53.4V47.4ZM219.568 45.44L224.262 41.7035C224.466 41.9595 224.372 41.9829 224.242 41.4232C224.116 40.8801 224.008 40.009 224.008 38.72H218.008H212.008C212.008 42.1956 212.507 46.2036 214.873 49.1765L219.568 45.44ZM218.008 38.72H224.008V28.48H218.008H212.008V38.72H218.008ZM218.008 28.48H224.008C224.008 28.932 223.92 29.4485 223.7 29.9668C223.482 30.4799 223.19 30.8631 222.93 31.1226L218.688 26.88L214.445 22.6374C212.923 24.1591 212.008 26.1968 212.008 28.48H218.008ZM218.688 26.88L222.93 31.1226C222.671 31.3821 222.288 31.6739 221.774 31.892C221.256 32.1123 220.74 32.2 220.288 32.2V26.2V20.2C218.004 20.2 215.967 21.1156 214.445 22.6374L218.688 26.88ZM220.288 26.2V32.2H222.048V26.2V20.2H220.288V26.2ZM222.048 26.2V32.2C221.596 32.2 221.079 32.1123 220.561 31.892C220.048 31.6739 219.664 31.3821 219.405 31.1226L223.648 26.88L227.89 22.6374C226.368 21.1156 224.331 20.2 222.048 20.2V26.2ZM223.648 26.88L219.405 31.1226C219.145 30.8631 218.854 30.4799 218.636 29.9668C218.415 29.4485 218.328 28.932 218.328 28.48H224.328H230.328C230.328 26.1968 229.412 24.1591 227.89 22.6374L223.648 26.88ZM224.328 28.48H218.328V38.28H224.328H230.328V28.48H224.328ZM224.328 38.28H218.328C218.328 39.9056 218.454 42.6364 219.97 44.86L224.928 41.48L229.885 38.1C230.125 38.452 230.248 38.7457 230.305 38.9032C230.363 39.0638 230.378 39.1517 230.375 39.1343C230.372 39.1203 230.359 39.0444 230.348 38.8922C230.336 38.742 230.328 38.5402 230.328 38.28H224.328ZM224.928 41.48L220.155 45.1163C222.154 47.74 225.066 48.32 227.088 48.32V42.32V36.32C227.105 36.32 227.45 36.3188 227.962 36.518C228.528 36.7381 229.18 37.1608 229.7 37.8437L224.928 41.48ZM227.088 42.32V48.32C229.813 48.32 232.106 47.1664 233.815 45.5164L229.648 41.2L225.48 36.8836C225.528 36.837 225.704 36.6824 226.023 36.5431C226.356 36.3972 226.728 36.32 227.088 36.32V42.32ZM229.648 41.2L233.89 45.4426C235.5 43.8332 236.808 41.5582 236.808 38.72H230.808H224.808C224.808 38.2486 224.918 37.81 225.083 37.4579C225.237 37.128 225.394 36.9688 225.405 36.9574L229.648 41.2ZM230.808 38.72H236.808V28.48H230.808H224.808V38.72H230.808ZM230.808 28.48H236.808C236.808 28.932 236.72 29.4485 236.5 29.9668C236.282 30.4799 235.99 30.8631 235.73 31.1226L231.488 26.88L227.245 22.6374C225.723 24.1591 224.808 26.1968 224.808 28.48H230.808ZM231.488 26.88L235.73 31.1226C235.471 31.3821 235.088 31.6739 234.574 31.892C234.056 32.1123 233.54 32.2 233.088 32.2V26.2V20.2C230.804 20.2 228.767 21.1156 227.245 22.6374L231.488 26.88ZM233.088 26.2V32.2H235.008V26.2V20.2H233.088V26.2ZM235.008 26.2V32.2C234.556 32.2 234.039 32.1123 233.521 31.892C233.008 31.6739 232.624 31.3821 232.365 31.1226L236.608 26.88L240.85 22.6374C239.328 21.1156 237.291 20.2 235.008 20.2V26.2ZM236.608 26.88L232.365 31.1226C232.105 30.8631 231.814 30.4799 231.596 29.9668C231.375 29.4485 231.288 28.932 231.288 28.48H237.288H243.288C243.288 26.1968 242.372 24.1591 240.85 22.6374L236.608 26.88ZM237.288 28.48H231.288V44.72H237.288H243.288V28.48H237.288ZM237.288 44.72H231.288C231.288 44.268 231.375 43.7515 231.596 43.2332C231.814 42.7201 232.105 42.3369 232.365 42.0774L236.608 46.32L240.85 50.5626C242.372 49.0409 243.288 47.0032 243.288 44.72H237.288ZM236.608 46.32L232.365 42.0774C232.624 41.8179 233.008 41.5261 233.521 41.308C234.039 41.0877 234.556 41 235.008 41V47V53C237.291 53 239.328 52.0844 240.85 50.5626L236.608 46.32ZM235.008 47V41H233.368V47V53H235.008V47ZM233.368 47V41C233.726 41 234.176 41.0623 234.659 41.2505C235.144 41.4399 235.541 41.7099 235.84 41.9908L231.728 46.36L227.615 50.7292C229.216 52.2355 231.247 53 233.368 53V47ZM231.728 46.36L236.097 42.2478C236.355 42.5221 236.601 42.8802 236.78 43.3119C236.958 43.7412 237.029 44.1443 237.042 44.4702L231.048 44.72L225.053 44.9698C225.138 47.0051 225.912 48.9358 227.358 50.4722L231.728 46.36ZM231.048 44.72H237.048V44.4H231.048H225.048V44.72H231.048ZM231.048 44.4H237.048C237.048 43.4618 236.809 41.6561 235.28 40.1273C233.751 38.5986 231.946 38.36 231.008 38.36V44.36V50.36C230.096 50.36 228.31 50.1281 226.795 48.6127C225.28 47.0973 225.048 45.3116 225.048 44.4H231.048ZM231.008 44.36L226.765 40.1174L226.685 40.1974L230.928 44.44L235.17 48.6826L235.25 48.6026L231.008 44.36ZM230.928 44.44L226.42 40.4804C225.72 41.2772 225.234 41.4 224.688 41.4V47.4V53.4C228.994 53.4 232.669 51.5495 235.435 48.3996L230.928 44.44ZM241.463 30.88L237.22 35.1226L237.284 35.1869L237.35 35.2492L241.463 30.88ZM241.463 27.68L237.22 23.4374L241.463 27.68ZM245.663 20.08L241.42 15.8374L241.42 15.8374L245.663 20.08ZM250.783 20.08L246.54 24.3226L246.54 24.3226L250.783 20.08ZM257.303 27.68L252.933 31.7922L252.996 31.8584L253.06 31.9226L257.303 27.68ZM251.903 41.92L246.865 45.1795L246.931 45.2812L247.001 45.3801L251.903 41.92ZM255.303 42.52L254.492 36.575L254.404 36.587L254.316 36.6016L255.303 42.52ZM256.863 42.92L260.507 38.1539L260.507 38.1539L256.863 42.92ZM256.903 46.36L261.492 50.2248L261.492 50.2248L256.903 46.36ZM255.263 47.24L254.548 41.2827L254.521 41.2859L254.495 41.2893L255.263 47.24ZM246.623 45.68L242.233 49.7704L242.281 49.822L242.33 49.8724L246.623 45.68ZM243.063 31.52V25.52C243.467 25.52 243.942 25.5935 244.431 25.7891C244.918 25.9841 245.3 26.2525 245.575 26.5108L241.463 30.88L237.35 35.2492C238.898 36.7059 240.896 37.52 243.063 37.52V31.52ZM241.463 30.88L245.705 26.6374C245.965 26.8969 246.257 27.2801 246.475 27.7932C246.695 28.3115 246.783 28.828 246.783 29.28H240.783H234.783C234.783 31.5632 235.698 33.6009 237.22 35.1226L241.463 30.88ZM240.783 29.28H246.783C246.783 29.732 246.695 30.2485 246.475 30.7668C246.257 31.2799 245.965 31.6631 245.705 31.9226L241.463 27.68L237.22 23.4374C235.698 24.9591 234.783 26.9968 234.783 29.28H240.783ZM241.463 27.68L245.705 31.9226C245.446 32.1821 245.063 32.4739 244.549 32.692C244.031 32.9123 243.515 33 243.063 33V27V21C240.779 21 238.742 21.9156 237.22 23.4374L241.463 27.68ZM243.063 27V33H244.663V27V21H243.063V27ZM244.663 27V33C245.889 33 247.852 32.6225 249.387 30.8962C250.802 29.3045 250.983 27.5222 250.983 26.64H244.983H238.983C238.983 25.9978 239.11 24.3955 240.418 22.9238C241.846 21.3175 243.649 21 244.663 21V27ZM244.983 26.64H250.983V21.68H244.983H238.983V26.64H244.983ZM244.983 21.68H250.983C250.983 22.132 250.895 22.6485 250.675 23.1668C250.457 23.6799 250.165 24.0631 249.905 24.3226L245.663 20.08L241.42 15.8374C239.898 17.3591 238.983 19.3968 238.983 21.68H244.983ZM245.663 20.08L249.905 24.3226C249.646 24.5821 249.263 24.8739 248.749 25.092C248.231 25.3123 247.715 25.4 247.263 25.4V19.4V13.4C244.979 13.4 242.942 14.3156 241.42 15.8374L245.663 20.08ZM247.263 19.4V25.4H249.183V19.4V13.4H247.263V19.4ZM249.183 19.4V25.4C248.731 25.4 248.214 25.3123 247.696 25.092C247.183 24.8739 246.799 24.5821 246.54 24.3226L250.783 20.08L255.025 15.8374C253.503 14.3156 251.466 13.4 249.183 13.4V19.4ZM250.783 20.08L246.54 24.3226C246.28 24.0631 245.989 23.6799 245.771 23.1668C245.55 22.6485 245.463 22.132 245.463 21.68H251.463H257.463C257.463 19.3968 256.547 17.3591 255.025 15.8374L250.783 20.08ZM251.463 21.68H245.463V26.64H251.463H257.463V21.68H251.463ZM251.463 26.64H245.463C245.463 27.6849 245.728 29.5706 247.31 31.1526C248.892 32.7347 250.778 33 251.823 33V27V21C252.627 21 254.333 21.2053 255.795 22.6674C257.257 24.1294 257.463 25.8351 257.463 26.64H251.463ZM251.823 27V33H255.743V27V21H251.823V27ZM255.743 27V33C255.292 33 254.751 32.9126 254.195 32.6702C253.641 32.4287 253.222 32.0988 252.933 31.7922L257.303 27.68L261.672 23.5678C260.131 21.9303 258.038 21 255.743 21V27ZM257.303 27.68L253.06 31.9226C252.8 31.6631 252.509 31.2799 252.291 30.7668C252.07 30.2485 251.983 29.732 251.983 29.28H257.983H263.983C263.983 26.9968 263.067 24.9591 261.545 23.4374L257.303 27.68ZM257.983 29.28H251.983C251.983 28.828 252.07 28.3115 252.291 27.7932C252.509 27.2801 252.8 26.8969 253.06 26.6374L257.303 30.88L261.545 35.1226C263.067 33.6009 263.983 31.5632 263.983 29.28H257.983ZM257.303 30.88L253.06 26.6374C253.367 26.3305 253.787 26.0256 254.315 25.809C254.841 25.5931 255.34 25.52 255.743 25.52V31.52V37.52C257.918 37.52 259.973 36.6951 261.545 35.1226L257.303 30.88ZM255.743 31.52V25.52H251.823V31.52V37.52H255.743V31.52ZM251.823 31.52V25.52C250.778 25.52 248.892 25.7853 247.31 27.3674C245.728 28.9494 245.463 30.8351 245.463 31.88H251.463H257.463C257.463 32.6849 257.257 34.3906 255.795 35.8526C254.333 37.3147 252.627 37.52 251.823 37.52V31.52ZM251.463 31.88H245.463V38.72H251.463H257.463V31.88H251.463ZM251.463 38.72H245.463C245.463 39.7002 245.503 40.6872 245.629 41.5973C245.726 42.3043 245.968 43.7923 246.865 45.1795L251.903 41.92L256.94 38.6605C257.128 38.9517 257.25 39.2055 257.325 39.3834C257.402 39.564 257.448 39.7076 257.473 39.7967C257.522 39.9646 257.527 40.0367 257.517 39.9627C257.508 39.8989 257.493 39.7651 257.482 39.5451C257.47 39.3285 257.463 39.0557 257.463 38.72H251.463ZM251.903 41.92L247.001 45.3801C249.152 48.4279 252.648 48.6 253.983 48.6V42.6V36.6C253.818 36.6 254.063 36.5754 254.527 36.727C255.023 36.8891 256.016 37.3427 256.804 38.4599L251.903 41.92ZM253.983 42.6V48.6C254.673 48.6 255.492 48.5712 256.289 48.4384L255.303 42.52L254.316 36.6016C254.374 36.592 254.407 36.5884 254.412 36.588C254.417 36.5874 254.404 36.5889 254.37 36.591C254.298 36.5954 254.172 36.6 253.983 36.6V42.6ZM255.303 42.52L256.113 48.465C255.718 48.5189 255.207 48.5169 254.642 48.372C254.073 48.2259 253.591 47.9713 253.218 47.6861L256.863 42.92L260.507 38.1539C258.733 36.7969 256.595 36.2882 254.492 36.575L255.303 42.52ZM256.863 42.92L253.218 47.6861C252.812 47.3755 252.35 46.8904 252.006 46.2033C251.661 45.5125 251.543 44.8324 251.543 44.28H257.543H263.543C263.543 41.8097 262.412 39.6103 260.507 38.1539L256.863 42.92ZM257.543 44.28H251.543V44.6H257.543H263.543V44.28H257.543ZM257.543 44.6H251.543C251.543 44.2818 251.596 43.8969 251.744 43.4895C251.892 43.0817 252.101 42.7472 252.313 42.4952L256.903 46.36L261.492 50.2248C262.836 48.6287 263.543 46.6709 263.543 44.6H257.543ZM256.903 46.36L252.313 42.4952C252.555 42.2076 252.896 41.909 253.336 41.673C253.774 41.4378 254.2 41.3245 254.548 41.2827L255.263 47.24L255.977 53.1973C258.131 52.9388 260.071 51.9124 261.492 50.2248L256.903 46.36ZM255.263 47.24L254.495 41.2893C253.987 41.3549 253.293 41.4 252.383 41.4V47.4V53.4C253.659 53.4 254.885 53.3385 256.03 53.1907L255.263 47.24ZM252.383 47.4V41.4C251.411 41.4 250.864 41.2938 250.619 41.2208C250.396 41.154 250.606 41.1709 250.915 41.4876L246.623 45.68L242.33 49.8724C245.151 52.7603 249.107 53.4 252.383 53.4V47.4ZM246.623 45.68L251.012 41.5896C251.339 41.94 251.304 42.12 251.198 41.714C251.093 41.3133 250.983 40.579 250.983 39.4H244.983H238.983C238.983 42.7494 239.512 46.8499 242.233 49.7704L246.623 45.68ZM244.983 39.4H250.983V31.88H244.983H238.983V39.4H244.983ZM244.983 31.88H250.983C250.983 30.9978 250.802 29.2155 249.387 27.6238C247.852 25.8975 245.889 25.52 244.663 25.52V31.52V37.52C243.649 37.52 241.846 37.2025 240.418 35.5962C239.11 34.1245 238.983 32.5222 238.983 31.88H244.983ZM244.663 31.52V25.52H243.063V31.52V37.52H244.663V31.52ZM263.107 46.32L258.738 50.4322L258.8 50.4984L258.864 50.5626L263.107 46.32ZM263.107 26.88L258.864 22.6374L258.8 22.7016L258.738 22.7678L263.107 26.88ZM268.227 26.88L263.858 30.9922L263.92 31.0584L263.984 31.1226L268.227 26.88ZM269.027 30.16L264.22 26.5693L263.027 28.1664V30.16H269.027ZM275.947 26.28L276.698 32.2328L276.71 32.2312L276.723 32.2296L275.947 26.28ZM277.507 26.84L273.138 30.9522L273.2 31.0184L273.264 31.0826L277.507 26.84ZM277.507 30.4L273.264 26.1574L273.2 26.2216L273.138 26.2878L277.507 30.4ZM275.907 31.16L275.409 25.1807L275.326 25.1876L275.244 25.1967L275.907 31.16ZM270.867 33.4L266.533 29.2506L266.531 29.2527L270.867 33.4ZM268.427 46.32L264.184 42.0774L264.12 42.1416L264.058 42.2078L268.427 46.32ZM264.707 47V41C265.159 41 265.675 41.0877 266.194 41.308C266.707 41.5261 267.09 41.8179 267.35 42.0774L263.107 46.32L258.864 50.5626C260.386 52.0844 262.424 53 264.707 53V47ZM263.107 46.32L267.476 42.2078C267.734 42.4822 268.003 42.8642 268.198 43.3517C268.393 43.8407 268.467 44.3156 268.467 44.72H262.467H256.467C256.467 46.8871 257.281 48.8845 258.738 50.4322L263.107 46.32ZM262.467 44.72H268.467V28.48H262.467H256.467V44.72H262.467ZM262.467 28.48H268.467C268.467 28.8844 268.393 29.3593 268.198 29.8483C268.003 30.3358 267.734 30.7178 267.476 30.9922L263.107 26.88L258.738 22.7678C257.281 24.3155 256.467 26.3129 256.467 28.48H262.467ZM263.107 26.88L267.35 31.1226C267.09 31.3821 266.707 31.6739 266.194 31.892C265.675 32.1123 265.159 32.2 264.707 32.2V26.2V20.2C262.424 20.2 260.386 21.1156 258.864 22.6374L263.107 26.88ZM264.707 26.2V32.2H266.667V26.2V20.2H264.707V26.2ZM266.667 26.2V32.2C266.216 32.2 265.676 32.1126 265.119 31.8702C264.565 31.6287 264.146 31.2988 263.858 30.9922L268.227 26.88L272.596 22.7678C271.055 21.1303 268.963 20.2 266.667 20.2V26.2ZM268.227 26.88L263.984 31.1226C263.725 30.8631 263.433 30.4799 263.215 29.9668C262.995 29.4485 262.907 28.932 262.907 28.48H268.907H274.907C274.907 26.1968 273.991 24.1591 272.47 22.6374L268.227 26.88ZM268.907 28.48H262.907V30.16H268.907H274.907V28.48H268.907ZM268.907 30.16H262.907C262.907 31.0982 263.146 32.9039 264.674 34.4326C266.203 35.9614 268.009 36.2 268.947 36.2V30.2V24.2C269.859 24.2 271.644 24.432 273.16 25.9474C274.675 27.4628 274.907 29.2485 274.907 30.16H268.907ZM268.947 30.2V36.2C269.28 36.2 270.423 36.1901 271.69 35.5565C272.409 35.1973 273.308 34.5651 274.014 33.5056C274.746 32.4087 275.027 31.2165 275.027 30.16H269.027H263.027C263.027 29.1168 263.305 27.9363 264.03 26.8493C264.729 25.7999 265.618 25.176 266.324 24.8235C267.564 24.2032 268.667 24.2 268.947 24.2V30.2ZM269.027 30.16L273.834 33.7507C274.429 32.9544 275.211 32.4204 276.698 32.2328L275.947 26.28L275.196 20.3272C270.763 20.8863 266.932 22.9389 264.22 26.5693L269.027 30.16ZM275.947 26.28L276.723 32.2296C276.199 32.298 275.509 32.2727 274.77 32.0072C274.031 31.7421 273.49 31.3265 273.138 30.9522L277.507 26.84L281.876 22.7278C280.139 20.8822 277.71 19.9993 275.171 20.3304L275.947 26.28ZM277.507 26.84L273.264 31.0826C272.981 30.7994 272.687 30.4006 272.474 29.8881C272.262 29.3753 272.187 28.8839 272.187 28.48H278.187H284.187C284.187 26.2456 283.326 24.1737 281.75 22.5974L277.507 26.84ZM278.187 28.48H272.187V28.8H278.187H284.187V28.48H278.187ZM278.187 28.8H272.187C272.187 28.348 272.275 27.8315 272.495 27.3132C272.713 26.8001 273.005 26.4169 273.264 26.1574L277.507 30.4L281.75 34.6426C283.271 33.1209 284.187 31.0832 284.187 28.8H278.187ZM277.507 30.4L273.138 26.2878C273.408 26.0007 273.769 25.7212 274.213 25.5103C274.654 25.3008 275.072 25.2088 275.409 25.1807L275.907 31.16L276.405 37.1393C278.47 36.9672 280.399 36.0814 281.876 34.5122L277.507 30.4ZM275.907 31.16L275.244 25.1967C272.049 25.5517 268.932 26.7449 266.533 29.2506L270.867 33.4L275.201 37.5494C275.202 37.5485 275.445 37.2483 276.57 37.1233L275.907 31.16ZM270.867 33.4L266.531 29.2527C264.117 31.7766 263.107 34.9511 263.107 38.2H269.107H275.107C275.107 37.8086 275.164 37.6284 275.18 37.5855C275.189 37.5625 275.193 37.5574 275.19 37.5614C275.188 37.5654 275.189 37.5615 275.203 37.5473L270.867 33.4ZM269.107 38.2H263.107V44.72H269.107H275.107V38.2H269.107ZM269.107 44.72H263.107C263.107 44.268 263.195 43.7515 263.415 43.2332C263.633 42.7201 263.925 42.3369 264.184 42.0774L268.427 46.32L272.67 50.5626C274.191 49.0409 275.107 47.0032 275.107 44.72H269.107ZM268.427 46.32L264.058 42.2078C264.346 41.9012 264.765 41.5713 265.319 41.3298C265.876 41.0874 266.416 41 266.867 41V47V53C269.163 53 271.255 52.0697 272.796 50.4322L268.427 46.32ZM266.867 47V41H264.707V47V53H266.867V47ZM286.211 42.2L281.969 46.4426L282.037 46.5111L282.108 46.5772L286.211 42.2ZM291.051 41.6L295.294 45.8426L295.329 45.8079L295.363 45.7725L291.051 41.6ZM281.411 45.64L277.121 49.8347L277.168 49.8829L277.217 49.93L281.411 45.64ZM291.451 31L287.451 35.4714L287.507 35.5223L287.565 35.5716L291.451 31ZM283.011 31.08L284.134 36.974L284.227 36.9562L284.32 36.9355L283.011 31.08ZM281.491 30.72L277.708 35.3767L277.776 35.4324L277.847 35.4861L281.491 30.72ZM281.451 27.48L276.679 23.8437L276.665 23.8618L276.651 23.88L281.451 27.48ZM283.051 26.48L284.038 32.3984L284.114 32.3857L284.189 32.3711L283.051 26.48ZM296.531 27.68L292.592 32.2058L292.613 32.2237L292.633 32.2414L296.531 27.68ZM298.051 46.32L302.294 50.5626L302.294 50.5626L298.051 46.32ZM293.331 46.36L289.089 50.6026L289.153 50.6669L289.219 50.7292L293.331 46.36ZM292.611 44.72H286.611V44.8449L286.617 44.9698L292.611 44.72ZM292.491 44.28L297.159 48.05L298.491 46.4004V44.28H292.491ZM290.451 37.48V31.48C288.405 31.48 285.86 31.7595 283.649 33.1186C280.96 34.7717 279.571 37.5155 279.571 40.48H285.571H291.571C291.571 40.8064 291.5 41.3844 291.151 42.0275C290.795 42.6831 290.314 43.1077 289.934 43.3414C289.593 43.5505 289.399 43.5703 289.521 43.5454C289.635 43.5219 289.927 43.48 290.451 43.48V37.48ZM285.571 40.48H279.571C279.571 42.4616 280.203 44.6773 281.969 46.4426L286.211 42.2L290.454 37.9574C290.859 38.3619 291.165 38.8482 291.355 39.3576C291.537 39.8474 291.571 40.2495 291.571 40.48H285.571ZM286.211 42.2L282.108 46.5772C283.89 48.2481 286.057 48.8 287.931 48.8V42.8V36.8C288.122 36.8 288.483 36.8263 288.938 36.9848C289.411 37.15 289.893 37.4276 290.315 37.8228L286.211 42.2ZM287.931 42.8V48.8C290.575 48.8 293.217 47.9193 295.294 45.8426L291.051 41.6L286.809 37.3574C286.993 37.1731 287.242 37.006 287.517 36.8999C287.779 36.7993 287.943 36.8 287.931 36.8V42.8ZM291.051 41.6L295.363 45.7725C297.44 43.6261 298.251 40.9337 298.251 38.32H292.251H286.251C286.251 38.4127 286.238 38.3131 286.317 38.0985C286.401 37.8664 286.549 37.6249 286.74 37.4275L291.051 41.6ZM292.251 38.32H298.251V37.84H292.251H286.251V38.32H292.251ZM292.251 37.84H298.251C298.251 36.7951 297.986 34.9094 296.404 33.3274C294.822 31.7453 292.936 31.48 291.891 31.48V37.48V43.48C291.086 43.48 289.381 43.2747 287.919 41.8126C286.457 40.3506 286.251 38.6449 286.251 37.84H292.251ZM291.891 37.48V31.48H290.451V37.48V43.48H291.891V37.48ZM285.971 47.4V41.4C285.83 41.4 285.737 41.3888 285.683 41.3794C285.656 41.3747 285.638 41.3702 285.627 41.3673C285.617 41.3643 285.612 41.3625 285.612 41.3625C285.612 41.3624 285.612 41.3627 285.614 41.3633C285.615 41.3639 285.617 41.3648 285.619 41.3659C285.624 41.3682 285.628 41.3706 285.631 41.3726C285.639 41.3776 285.63 41.3737 285.606 41.35L281.411 45.64L277.217 49.93C279.651 52.3101 282.729 53.4 285.971 53.4V47.4ZM281.411 45.64L285.701 41.4453C285.686 41.4292 285.686 41.4271 285.693 41.4379C285.7 41.4489 285.703 41.4562 285.701 41.4521C285.7 41.4493 285.651 41.3235 285.651 41H279.651H273.651C273.651 44.2429 274.708 47.3666 277.121 49.8347L281.411 45.64ZM279.651 41H285.651C285.651 40.5309 285.736 40.4114 285.705 40.4746C285.66 40.5639 285.608 40.5807 285.705 40.5152C286.055 40.279 287.337 39.72 290.451 39.72V33.72V27.72C286.366 27.72 282.247 28.3743 278.998 30.5648C275.327 33.0391 273.651 36.8537 273.651 41H279.651ZM290.451 33.72V39.72H291.891V33.72V27.72H290.451V33.72ZM291.891 33.72V39.72C292.774 39.72 294.556 39.5393 296.148 38.1245C297.874 36.5899 298.251 34.6266 298.251 33.4H292.251H286.251C286.251 32.3868 286.569 30.5834 288.175 29.1555C289.647 27.8474 291.249 27.72 291.891 27.72V33.72ZM292.251 33.4H298.251V33.2H292.251H286.251V33.4H292.251ZM292.251 33.2H298.251C298.251 31.2371 297.726 28.4589 295.337 26.4284L291.451 31L287.565 35.5716C286.951 35.0493 286.593 34.4372 286.413 33.9405C286.328 33.7078 286.289 33.5198 286.27 33.398C286.252 33.2769 286.251 33.2067 286.251 33.2H292.251ZM291.451 31L295.452 26.5286C293.249 24.5578 290.488 24.32 288.851 24.32V30.32V36.32C289.127 36.32 289.11 36.3488 288.903 36.2948C288.696 36.2407 288.096 36.0492 287.451 35.4714L291.451 31ZM288.851 30.32V24.32C286.642 24.32 284.233 24.659 281.702 25.2245L283.011 31.08L284.32 36.9355C286.323 36.4877 287.808 36.32 288.851 36.32V30.32ZM283.011 31.08L281.889 25.186C282.359 25.0964 282.95 25.079 283.594 25.2315C284.238 25.384 284.757 25.6644 285.136 25.9539L281.491 30.72L277.847 35.4861C279.655 36.8687 281.895 37.4006 284.134 36.974L283.011 31.08ZM281.491 30.72L285.275 26.0633C285.692 26.4022 286.127 26.8999 286.44 27.5652C286.752 28.2273 286.851 28.8614 286.851 29.36H280.851H274.851C274.851 31.6876 275.849 33.8662 277.708 35.3767L281.491 30.72ZM280.851 29.36H286.851V29.28H280.851H274.851V29.36H280.851ZM280.851 29.28H286.851C286.851 29.5565 286.808 29.8831 286.693 30.2274C286.579 30.5716 286.417 30.8588 286.251 31.08L281.451 27.48L276.651 23.88C275.472 25.4519 274.851 27.3151 274.851 29.28H280.851ZM281.451 27.48L286.224 31.1163C286.05 31.3439 285.768 31.6378 285.351 31.898C284.927 32.163 284.471 32.3261 284.038 32.3984L283.051 26.48L282.065 20.5616C279.784 20.9418 277.945 22.1818 276.679 23.8437L281.451 27.48ZM283.051 26.48L284.189 32.3711C286.297 31.9638 287.924 31.8 289.131 31.8V25.8V19.8C286.925 19.8 284.498 20.0895 281.913 20.5889L283.051 26.48ZM289.131 25.8V31.8C290.55 31.8 291.515 31.9305 292.124 32.0853C292.737 32.2411 292.776 32.366 292.592 32.2058L296.531 27.68L300.47 23.1542C297.338 20.4279 293.004 19.8 289.131 19.8V25.8ZM296.531 27.68L292.633 32.2414C292.455 32.089 292.456 31.9856 292.523 32.175C292.604 32.4069 292.731 32.9427 292.731 33.92H298.731H304.731C304.731 30.158 303.788 25.9891 300.429 23.1186L296.531 27.68ZM298.731 33.92H292.731V44.72H298.731H304.731V33.92H298.731ZM298.731 44.72H292.731C292.731 44.268 292.819 43.7515 293.039 43.2332C293.257 42.7201 293.549 42.3369 293.809 42.0774L298.051 46.32L302.294 50.5626C303.816 49.0409 304.731 47.0032 304.731 44.72H298.731ZM298.051 46.32L293.809 42.0774C294.068 41.8179 294.451 41.5261 294.964 41.308C295.483 41.0877 295.999 41 296.451 41V47V53C298.734 53 300.772 52.0844 302.294 50.5626L298.051 46.32ZM296.451 47V41H294.971V47V53H296.451V47ZM294.971 47V41C295.33 41 295.78 41.0623 296.263 41.2505C296.748 41.4399 297.145 41.7099 297.444 41.9908L293.331 46.36L289.219 50.7292C290.82 52.2355 292.85 53 294.971 53V47ZM293.331 46.36L297.574 42.1174C297.835 42.3787 298.104 42.7397 298.305 43.1981C298.506 43.6565 298.591 44.0994 298.606 44.4702L292.611 44.72L286.617 44.9698C286.706 47.1148 287.572 49.0862 289.089 50.6026L293.331 46.36ZM292.611 44.72H298.611V44.28H292.611H286.611V44.72H292.611ZM292.611 44.28H298.611C298.611 43.3418 298.373 41.5361 296.844 40.0074C295.315 38.4786 293.51 38.24 292.571 38.24V44.24V50.24C291.66 50.24 289.874 50.008 288.359 48.4926C286.843 46.9772 286.611 45.1915 286.611 44.28H292.611ZM292.571 44.24V38.24C292.238 38.24 291.095 38.2499 289.828 38.8834C289.11 39.2427 288.21 39.8749 287.504 40.9343C286.773 42.0313 286.491 43.2234 286.491 44.28H292.491H298.491C298.491 45.3232 298.213 46.5037 297.489 47.5907C296.789 48.6401 295.9 49.264 295.195 49.6166C293.954 50.2368 292.851 50.24 292.571 50.24V44.24ZM292.491 44.28L287.824 40.51C287.279 41.184 286.82 41.4 285.971 41.4V47.4V53.4C290.456 53.4 294.343 51.536 297.159 48.05L292.491 44.28Z" fill="white" mask="url(#path-1-outside-1_129_29)"/>
</g>
<defs>
<filter id="filter0_d_129_29" x="0" y="0" width="319.731" height="80.8" filterUnits="userSpaceOnUse" color-interpolation-filters="sRGB">
<feFlood flood-opacity="0" result="BackgroundImageFix"/>
<feColorMatrix in="SourceAlpha" type="matrix" values="0 0 0 0 0 0 0 0 0 0 0 0 0 0 0 0 0 0 127 0" result="hardAlpha"/>
<feOffset dy="4"/>
<feGaussianBlur stdDeviation="7.5"/>
<feComposite in2="hardAlpha" operator="out"/>
<feColorMatrix type="matrix" values="0 0 0 0 0 0 0 0 0 0 0 0 0 0 0 0 0 0 0.1 0"/>
<feBlend mode="normal" in2="BackgroundImageFix" result="effect1_dropShadow_129_29"/>
<feBlend mode="normal" in="SourceGraphic" in2="effect1_dropShadow_129_29" result="shape"/>
</filter>
<linearGradient id="paint0_linear_129_29" x1="19.7598" y1="32" x2="301.76" y2="32" gradientUnits="userSpaceOnUse">
<stop stop-color="#F04F23"/>
<stop offset="1" stop-color="#F04F23"/>
</linearGradient>
</defs>
</svg>
